solid cases
facet normal 0.0 0.0 -1.0
  outer loop
    vertex 51.0 54.0 0.0
    vertex 0.0 0.0 0.0
    vertex 0.0 54.0 0.0
  endloop
endfacet
facet normal 0.0 0.0 -1.0
  outer loop
    vertex 0.0 0.0 0.0
    vertex 51.0 54.0 0.0
    vertex 51.0 0.0 0.0
  endloop
endfacet
facet normal -0.0 -0.0 1.0
  outer loop
    vertex 51.0 0.0 23.0
    vertex 0.0 54.0 23.0
    vertex 0.0 0.0 23.0
  endloop
endfacet
facet normal -0.0 -0.0 1.0
  outer loop
    vertex 0.0 54.0 23.0
    vertex 51.0 0.0 23.0
    vertex 51.0 54.0 23.0
  endloop
endfacet
facet normal -1.0 0.0 0.0
  outer loop
    vertex 0.0 54.0 23.0
    vertex 0.0 0.0 0.0
    vertex 0.0 0.0 23.0
  endloop
endfacet
facet normal -1.0 0.0 0.0
  outer loop
    vertex 0.0 0.0 0.0
    vertex 0.0 54.0 23.0
    vertex 0.0 54.0 0.0
  endloop
endfacet
facet normal -0.0 1.0 0.0
  outer loop
    vertex 0.0 54.0 23.0
    vertex 51.0 54.0 0.0
    vertex 0.0 54.0 0.0
  endloop
endfacet
facet normal -0.0 1.0 0.0
  outer loop
    vertex 51.0 54.0 0.0
    vertex 0.0 54.0 23.0
    vertex 51.0 54.0 23.0
  endloop
endfacet
facet normal 1.0 0.0 0.0
  outer loop
    vertex 51.0 54.0 0.0
    vertex 51.0 0.0 23.0
    vertex 51.0 0.0 0.0
  endloop
endfacet
facet normal 1.0 0.0 0.0
  outer loop
    vertex 51.0 0.0 23.0
    vertex 51.0 54.0 0.0
    vertex 51.0 54.0 23.0
  endloop
endfacet
facet normal -0.0 -1.0 -0.0
  outer loop
    vertex 51.0 0.0 23.0
    vertex 0.0 0.0 0.0
    vertex 51.0 0.0 0.0
  endloop
endfacet
facet normal -0.0 -1.0 -0.0
  outer loop
    vertex 0.0 0.0 0.0
    vertex 51.0 0.0 23.0
    vertex 0.0 0.0 23.0
  endloop
endfacet
facet normal 0.0 0.0 -1.0
  outer loop
    vertex -20.12326072659334 53.053380421206136 -2.255973186038318e-14
    vertex -46.12326072659334 0.053380421206144744 -2.255973186038318e-14
    vertex -46.12326072659334 53.053380421206136 -2.255973186038318e-14
  endloop
endfacet
facet normal 0.0 0.0 -1.0
  outer loop
    vertex -46.12326072659334 0.053380421206144744 -2.255973186038318e-14
    vertex -20.12326072659334 53.053380421206136 -2.255973186038318e-14
    vertex -20.12326072659334 0.053380421206144744 -2.255973186038318e-14
  endloop
endfacet
facet normal -0.0 -0.0 1.0
  outer loop
    vertex -20.12326072659334 0.053380421206144744 34.99999999999998
    vertex -46.12326072659334 53.053380421206136 34.99999999999998
    vertex -46.12326072659334 0.053380421206144744 34.99999999999998
  endloop
endfacet
facet normal -0.0 -0.0 1.0
  outer loop
    vertex -46.12326072659334 53.053380421206136 34.99999999999998
    vertex -20.12326072659334 0.053380421206144744 34.99999999999998
    vertex -20.12326072659334 53.053380421206136 34.99999999999998
  endloop
endfacet
facet normal -1.0 0.0 0.0
  outer loop
    vertex -46.12326072659334 53.053380421206136 34.99999999999998
    vertex -46.12326072659334 0.053380421206144744 -2.255973186038318e-14
    vertex -46.12326072659334 0.053380421206144744 34.99999999999998
  endloop
endfacet
facet normal -1.0 0.0 0.0
  outer loop
    vertex -46.12326072659334 0.053380421206144744 -2.255973186038318e-14
    vertex -46.12326072659334 53.053380421206136 34.99999999999998
    vertex -46.12326072659334 53.053380421206136 -2.255973186038318e-14
  endloop
endfacet
facet normal -0.0 1.0 0.0
  outer loop
    vertex -46.12326072659334 53.053380421206136 34.99999999999998
    vertex -20.12326072659334 53.053380421206136 -2.255973186038318e-14
    vertex -46.12326072659334 53.053380421206136 -2.255973186038318e-14
  endloop
endfacet
facet normal -0.0 1.0 0.0
  outer loop
    vertex -20.12326072659334 53.053380421206136 -2.255973186038318e-14
    vertex -46.12326072659334 53.053380421206136 34.99999999999998
    vertex -20.12326072659334 53.053380421206136 34.99999999999998
  endloop
endfacet
facet normal 1.0 0.0 0.0
  outer loop
    vertex -20.12326072659334 53.053380421206136 -2.255973186038318e-14
    vertex -20.12326072659334 0.053380421206144744 34.99999999999998
    vertex -20.12326072659334 0.053380421206144744 -2.255973186038318e-14
  endloop
endfacet
facet normal 1.0 0.0 0.0
  outer loop
    vertex -20.12326072659334 0.053380421206144744 34.99999999999998
    vertex -20.12326072659334 53.053380421206136 -2.255973186038318e-14
    vertex -20.12326072659334 53.053380421206136 34.99999999999998
  endloop
endfacet
facet normal -0.0 -1.0 -0.0
  outer loop
    vertex -20.12326072659334 0.053380421206144744 34.99999999999998
    vertex -46.12326072659334 0.053380421206144744 -2.255973186038318e-14
    vertex -20.12326072659334 0.053380421206144744 -2.255973186038318e-14
  endloop
endfacet
facet normal -0.0 -1.0 -0.0
  outer loop
    vertex -46.12326072659334 0.053380421206144744 -2.255973186038318e-14
    vertex -20.12326072659334 0.053380421206144744 34.99999999999998
    vertex -46.12326072659334 0.053380421206144744 34.99999999999998
  endloop
endfacet
facet normal 0.8670997476288278 0.4981345477499262 0.0
  outer loop
    vertex 27.48798150744412 -13.70436079706969 -9.86988268891764e-15
    vertex 28.693473044185914 -16.632487627420474 0.8749999999999899
    vertex 28.693473044185914 -16.632487627420474 -9.86988268891764e-15
  endloop
endfacet
facet normal 0.9664807481846356 0.2567390959485271 0.0
  outer loop
    vertex 28.693473044185914 -16.632487627420474 0.8749999999999899
    vertex 27.48798150744412 -13.70436079706969 -9.86988268891764e-15
    vertex 27.48798150744412 -13.70436079706969 0.8749999999999899
  endloop
endfacet
facet normal 0.9664807481846356 0.2567390959485271 0.0
  outer loop
    vertex 28.693473044185914 -16.632487627420474 -9.86988268891764e-15
    vertex 29.100033462727332 -19.77284512392499 0.8749999999999899
    vertex 29.100033462727332 -19.77284512392499 -9.86988268891764e-15
  endloop
endfacet
facet normal 0.9999976829366033 -0.0021527009603165372 0.0
  outer loop
    vertex 29.100033462727332 -19.77284512392499 0.8749999999999899
    vertex 28.693473044185914 -16.632487627420474 -9.86988268891764e-15
    vertex 28.693473044185914 -16.632487627420474 0.8749999999999899
  endloop
endfacet
facet normal 0.0021527009602967735 0.9999976829366034 0.0
  outer loop
    vertex 16.99617383135497 -7.616760967255163 0.8749999999999899
    vertex 20.13475182031242 -8.036838087565096 -9.86988268891764e-15
    vertex 16.99617383135497 -7.616760967255163 -9.86988268891764e-15
  endloop
endfacet
facet normal 0.26089779485623693 0.9653664281707507 0.0
  outer loop
    vertex 20.13475182031242 -8.036838087565096 -9.86988268891764e-15
    vertex 16.99617383135497 -7.616760967255163 0.8749999999999899
    vertex 20.13475182031242 -8.036838087565096 0.8749999999999899
  endloop
endfacet
facet normal 0.25673909594858785 -0.9664807481846195 0.0
  outer loop
    vertex 20.084306802562203 -31.47014433675576 0.8749999999999899
    vertex 16.943949306057775 -31.876704755297446 -9.86988268891764e-15
    vertex 20.084306802562203 -31.47014433675576 -9.86988268891764e-15
  endloop
endfacet
facet normal -0.0021527009602967735 -0.9999976829366034 0.0
  outer loop
    vertex 16.943949306057775 -31.876704755297446 -9.86988268891764e-15
    vertex 20.084306802562203 -31.47014433675576 0.8749999999999899
    vertex 16.943949306057775 -31.876704755297446 0.8749999999999899
  endloop
endfacet
facet normal -0.8670997476288278 -0.4981345477499262 0.0
  outer loop
    vertex 6.452141629968626 -25.789104925482917 0.8749999999999899
    vertex 8.374412028850994 -28.3054540851498 -9.86988268891764e-15
    vertex 8.374412028850994 -28.3054540851498 0.8749999999999899
  endloop
endfacet
facet normal -0.7086273322222105 -0.7055829533284041 0.0
  outer loop
    vertex 8.374412028850994 -28.3054540851498 -9.86988268891764e-15
    vertex 6.452141629968626 -25.789104925482917 0.8749999999999899
    vertex 6.452141629968626 -25.789104925482917 -9.86988268891764e-15
  endloop
endfacet
facet normal -0.9664807481846356 -0.2567390959485271 0.0
  outer loop
    vertex 5.246650093226827 -22.860978095132136 0.8749999999999899
    vertex 6.452141629968626 -25.789104925482917 -9.86988268891764e-15
    vertex 6.452141629968626 -25.789104925482917 0.8749999999999899
  endloop
endfacet
facet normal -0.8670997476288278 -0.4981345477499262 0.0
  outer loop
    vertex 6.452141629968626 -25.789104925482917 -9.86988268891764e-15
    vertex 5.246650093226827 -22.860978095132136 0.8749999999999899
    vertex 5.246650093226827 -22.860978095132136 -9.86988268891764e-15
  endloop
endfacet
facet normal -0.9999976829366033 0.0021527009603165372 0.0
  outer loop
    vertex 4.8400896746854105 -19.72062059862762 0.8749999999999899
    vertex 5.246650093226827 -22.860978095132136 -9.86988268891764e-15
    vertex 5.246650093226827 -22.860978095132136 0.8749999999999899
  endloop
endfacet
facet normal -0.9664807481846356 -0.2567390959485271 0.0
  outer loop
    vertex 5.246650093226827 -22.860978095132136 -9.86988268891764e-15
    vertex 4.8400896746854105 -19.72062059862762 0.8749999999999899
    vertex 4.8400896746854105 -19.72062059862762 -9.86988268891764e-15
  endloop
endfacet
facet normal -0.9653664281707566 0.26089779485621545 0.0
  outer loop
    vertex 5.260166794995162 -16.582042609670346 0.8749999999999899
    vertex 4.8400896746854105 -19.72062059862762 -9.86988268891764e-15
    vertex 4.8400896746854105 -19.72062059862762 0.8749999999999899
  endloop
endfacet
facet normal -0.9999976829366033 0.0021527009603165372 0.0
  outer loop
    vertex 4.8400896746854105 -19.72062059862762 -9.86988268891764e-15
    vertex 5.260166794995162 -16.582042609670346 0.8749999999999899
    vertex 5.260166794995162 -16.582042609670346 -9.86988268891764e-15
  endloop
endfacet
facet normal -0.8649470466685178 0.5018631351866849 0.0
  outer loop
    vertex 6.4782538926172215 -13.659133031461778 0.8749999999999899
    vertex 5.260166794995162 -16.582042609670346 -9.86988268891764e-15
    vertex 5.260166794995162 -16.582042609670346 0.8749999999999899
  endloop
endfacet
facet normal -0.9653664281707566 0.26089779485621545 0.0
  outer loop
    vertex 5.260166794995162 -16.582042609670346 -9.86988268891764e-15
    vertex 6.4782538926172215 -13.659133031461778 0.8749999999999899
    vertex 6.4782538926172215 -13.659133031461778 -9.86988268891764e-15
  endloop
endfacet
facet normal -0.7055829533283839 0.7086273322222307 0.0
  outer loop
    vertex 8.411340344832876 -11.151083321420927 0.8749999999999899
    vertex 6.4782538926172215 -13.659133031461778 -9.86988268891764e-15
    vertex 6.4782538926172215 -13.659133031461778 0.8749999999999899
  endloop
endfacet
facet normal -0.8649470466685178 0.5018631351866849 0.0
  outer loop
    vertex 6.4782538926172215 -13.659133031461778 -9.86988268891764e-15
    vertex 8.411340344832876 -11.151083321420927 0.8749999999999899
    vertex 8.411340344832876 -11.151083321420927 -9.86988268891764e-15
  endloop
endfacet
facet normal -0.7055829533283839 0.7086273322222307 0.0
  outer loop
    vertex 8.411340344832876 -11.151083321420927 0.8749999999999899
    vertex 10.927689504499847 -9.228812922538738 -9.86988268891764e-15
    vertex 8.411340344832876 -11.151083321420927 -9.86988268891764e-15
  endloop
endfacet
facet normal -0.4981345477499152 0.867099747628834 0.0
  outer loop
    vertex 10.927689504499847 -9.228812922538738 -9.86988268891764e-15
    vertex 8.411340344832876 -11.151083321420927 0.8749999999999899
    vertex 10.927689504499847 -9.228812922538738 0.8749999999999899
  endloop
endfacet
facet normal -0.4981345477499152 0.867099747628834 0.0
  outer loop
    vertex 10.927689504499847 -9.228812922538738 0.8749999999999899
    vertex 13.855816334850541 -8.02332138579685 -9.86988268891764e-15
    vertex 10.927689504499847 -9.228812922538738 -9.86988268891764e-15
  endloop
endfacet
facet normal -0.25673909594858785 0.9664807481846195 0.0
  outer loop
    vertex 13.855816334850541 -8.02332138579685 -9.86988268891764e-15
    vertex 10.927689504499847 -9.228812922538738 0.8749999999999899
    vertex 13.855816334850541 -8.02332138579685 0.8749999999999899
  endloop
endfacet
facet normal -0.25673909594858785 0.9664807481846195 0.0
  outer loop
    vertex 13.855816334850541 -8.02332138579685 0.8749999999999899
    vertex 16.99617383135497 -7.616760967255163 -9.86988268891764e-15
    vertex 13.855816334850541 -8.02332138579685 -9.86988268891764e-15
  endloop
endfacet
facet normal 0.0021527009602967735 0.9999976829366034 0.0
  outer loop
    vertex 16.99617383135497 -7.616760967255163 -9.86988268891764e-15
    vertex 13.855816334850541 -8.02332138579685 0.8749999999999899
    vertex 16.99617383135497 -7.616760967255163 0.8749999999999899
  endloop
endfacet
facet normal 0.8649470466685178 -0.5018631351866849 0.0
  outer loop
    vertex 27.461869244795523 -25.834332691090832 -9.86988268891764e-15
    vertex 25.528782792579868 -28.342382401131683 0.8749999999999899
    vertex 25.528782792579868 -28.342382401131683 -9.86988268891764e-15
  endloop
endfacet
facet normal 0.7055829533283839 -0.7086273322222307 0.0
  outer loop
    vertex 25.528782792579868 -28.342382401131683 0.8749999999999899
    vertex 27.461869244795523 -25.834332691090832 -9.86988268891764e-15
    vertex 27.461869244795523 -25.834332691090832 0.8749999999999899
  endloop
endfacet
facet normal 0.7055829533283839 -0.7086273322222307 0.0
  outer loop
    vertex 25.528782792579868 -28.342382401131683 0.8749999999999899
    vertex 23.012433632912895 -30.26465280001387 -9.86988268891764e-15
    vertex 25.528782792579868 -28.342382401131683 -9.86988268891764e-15
  endloop
endfacet
facet normal 0.4981345477499152 -0.867099747628834 0.0
  outer loop
    vertex 23.012433632912895 -30.26465280001387 -9.86988268891764e-15
    vertex 25.528782792579868 -28.342382401131683 0.8749999999999899
    vertex 23.012433632912895 -30.26465280001387 0.8749999999999899
  endloop
endfacet
facet normal -0.0021527009602967735 -0.9999976829366034 0.0
  outer loop
    vertex 16.943949306057775 -31.876704755297446 0.8749999999999899
    vertex 13.805371317100324 -31.456627634987512 -9.86988268891764e-15
    vertex 16.943949306057775 -31.876704755297446 -9.86988268891764e-15
  endloop
endfacet
facet normal -0.26089779485623693 -0.9653664281707507 0.0
  outer loop
    vertex 13.805371317100324 -31.456627634987512 -9.86988268891764e-15
    vertex 16.943949306057775 -31.876704755297446 0.8749999999999899
    vertex 13.805371317100324 -31.456627634987512 0.8749999999999899
  endloop
endfacet
facet normal 0.9999976829366033 -0.0021527009603165372 0.0
  outer loop
    vertex 29.100033462727332 -19.77284512392499 -9.86988268891764e-15
    vertex 28.67995634241758 -22.91142311288226 0.8749999999999899
    vertex 28.67995634241758 -22.91142311288226 -9.86988268891764e-15
  endloop
endfacet
facet normal 0.9653664281707566 -0.26089779485621545 0.0
  outer loop
    vertex 28.67995634241758 -22.91142311288226 0.8749999999999899
    vertex 29.100033462727332 -19.77284512392499 -9.86988268891764e-15
    vertex 29.100033462727332 -19.77284512392499 0.8749999999999899
  endloop
endfacet
facet normal 0.9653664281707566 -0.26089779485621545 0.0
  outer loop
    vertex 28.67995634241758 -22.91142311288226 -9.86988268891764e-15
    vertex 27.461869244795523 -25.834332691090832 0.8749999999999899
    vertex 27.461869244795523 -25.834332691090832 -9.86988268891764e-15
  endloop
endfacet
facet normal 0.8649470466685178 -0.5018631351866849 0.0
  outer loop
    vertex 27.461869244795523 -25.834332691090832 0.8749999999999899
    vertex 28.67995634241758 -22.91142311288226 -9.86988268891764e-15
    vertex 28.67995634241758 -22.91142311288226 0.8749999999999899
  endloop
endfacet
facet normal 0.7086273322222105 0.7055829533284041 0.0
  outer loop
    vertex 25.56571110856175 -11.18801163740281 -9.86988268891764e-15
    vertex 27.48798150744412 -13.70436079706969 0.8749999999999899
    vertex 27.48798150744412 -13.70436079706969 -9.86988268891764e-15
  endloop
endfacet
facet normal 0.8670997476288278 0.4981345477499262 0.0
  outer loop
    vertex 27.48798150744412 -13.70436079706969 0.8749999999999899
    vertex 25.56571110856175 -11.18801163740281 -9.86988268891764e-15
    vertex 25.56571110856175 -11.18801163740281 0.8749999999999899
  endloop
endfacet
facet normal 0.26089779485623693 0.9653664281707507 0.0
  outer loop
    vertex 20.13475182031242 -8.036838087565096 0.8749999999999899
    vertex 23.057661398520807 -9.254925185187064 -9.86988268891764e-15
    vertex 20.13475182031242 -8.036838087565096 -9.86988268891764e-15
  endloop
endfacet
facet normal 0.5018631351866853 0.8649470466685176 0.0
  outer loop
    vertex 23.057661398520807 -9.254925185187064 -9.86988268891764e-15
    vertex 20.13475182031242 -8.036838087565096 0.8749999999999899
    vertex 23.057661398520807 -9.254925185187064 0.8749999999999899
  endloop
endfacet
facet normal 0.4981345477499152 -0.867099747628834 0.0
  outer loop
    vertex 23.012433632912895 -30.26465280001387 0.8749999999999899
    vertex 20.084306802562203 -31.47014433675576 -9.86988268891764e-15
    vertex 23.012433632912895 -30.26465280001387 -9.86988268891764e-15
  endloop
endfacet
facet normal 0.25673909594858785 -0.9664807481846195 0.0
  outer loop
    vertex 20.084306802562203 -31.47014433675576 -9.86988268891764e-15
    vertex 23.012433632912895 -30.26465280001387 0.8749999999999899
    vertex 20.084306802562203 -31.47014433675576 0.8749999999999899
  endloop
endfacet
facet normal 0.5018631351866853 0.8649470466685176 0.0
  outer loop
    vertex 23.057661398520807 -9.254925185187064 0.8749999999999899
    vertex 25.56571110856175 -11.18801163740281 -9.86988268891764e-15
    vertex 23.057661398520807 -9.254925185187064 -9.86988268891764e-15
  endloop
endfacet
facet normal 0.7086273322222105 0.7055829533284041 0.0
  outer loop
    vertex 25.56571110856175 -11.18801163740281 -9.86988268891764e-15
    vertex 23.057661398520807 -9.254925185187064 0.8749999999999899
    vertex 25.56571110856175 -11.18801163740281 0.8749999999999899
  endloop
endfacet
facet normal -0.5018631351866853 -0.8649470466685176 0.0
  outer loop
    vertex 10.882461738891934 -30.238540537365544 0.8749999999999899
    vertex 8.374412028850994 -28.3054540851498 -9.86988268891764e-15
    vertex 10.882461738891934 -30.238540537365544 -9.86988268891764e-15
  endloop
endfacet
facet normal -0.7086273322222105 -0.7055829533284041 0.0
  outer loop
    vertex 8.374412028850994 -28.3054540851498 -9.86988268891764e-15
    vertex 10.882461738891934 -30.238540537365544 0.8749999999999899
    vertex 8.374412028850994 -28.3054540851498 0.8749999999999899
  endloop
endfacet
facet normal -0.26089779485623693 -0.9653664281707507 0.0
  outer loop
    vertex 13.805371317100324 -31.456627634987512 0.8749999999999899
    vertex 10.882461738891934 -30.238540537365544 -9.86988268891764e-15
    vertex 13.805371317100324 -31.456627634987512 -9.86988268891764e-15
  endloop
endfacet
facet normal -0.5018631351866853 -0.8649470466685176 0.0
  outer loop
    vertex 10.882461738891934 -30.238540537365544 -9.86988268891764e-15
    vertex 13.805371317100324 -31.456627634987512 0.8749999999999899
    vertex 10.882461738891934 -30.238540537365544 0.8749999999999899
  endloop
endfacet
facet normal 0.0 0.0 -1.0
  outer loop
    vertex 5.260166794995162 -16.582042609670346 -9.86988268891764e-15
    vertex 5.137061038442641 -19.72125989064893 -9.86988268891764e-15
    vertex 4.8400896746854105 -19.72062059862762 -9.86988268891764e-15
  endloop
endfacet
facet normal 0.0 0.0 -1.0
  outer loop
    vertex 5.137061038442641 -19.72125989064893 -9.86988268891764e-15
    vertex 5.260166794995162 -16.582042609670346 -9.86988268891764e-15
    vertex 5.5468536439661875 -16.65952196313447 -9.86988268891764e-15
  endloop
endfacet
facet normal 0.0 0.0 -1.0
  outer loop
    vertex 5.5468536439661875 -16.65952196313447 -9.86988268891764e-15
    vertex 5.260166794995162 -16.582042609670346 -9.86988268891764e-15
    vertex 6.4782538926172215 -13.659133031461778 -9.86988268891764e-15
  endloop
endfacet
facet normal 0.0 0.0 -1.0
  outer loop
    vertex 5.5468536439661875 -16.65952196313447 -9.86988268891764e-15
    vertex 6.4782538926172215 -13.659133031461778 -9.86988268891764e-15
    vertex 6.735118991816831 -13.808172356471374 -9.86988268891764e-15
  endloop
endfacet
facet normal 0.0 0.0 -1.0
  outer loop
    vertex 6.735118991816831 -13.808172356471374 -9.86988268891764e-15
    vertex 6.4782538926172215 -13.659133031461778 -9.86988268891764e-15
    vertex 8.411340344832876 -11.151083321420927 -9.86988268891764e-15
  endloop
endfacet
facet normal 0.0 0.0 -1.0
  outer loop
    vertex 6.735118991816831 -13.808172356471374 -9.86988268891764e-15
    vertex 8.411340344832876 -11.151083321420927 -9.86988268891764e-15
    vertex 8.620878762240258 -11.361525834275483 -9.86988268891764e-15
  endloop
endfacet
facet normal 0.0 0.0 -1.0
  outer loop
    vertex 8.620878762240258 -11.361525834275483 -9.86988268891764e-15
    vertex 8.411340344832876 -11.151083321420927 -9.86988268891764e-15
    vertex 10.927689504499847 -9.228812922538738 -9.86988268891764e-15
  endloop
endfacet
facet normal 0.0 0.0 -1.0
  outer loop
    vertex 8.620878762240258 -11.361525834275483 -9.86988268891764e-15
    vertex 10.927689504499847 -9.228812922538738 -9.86988268891764e-15
    vertex 11.075621543248294 -9.4863173137593 -9.86988268891764e-15
  endloop
endfacet
facet normal 0.0 0.0 -1.0
  outer loop
    vertex 11.075621543248294 -9.4863173137593 -9.86988268891764e-15
    vertex 10.927689504499847 -9.228812922538738 -9.86988268891764e-15
    vertex 13.855816334850541 -8.02332138579685 -9.86988268891764e-15
  endloop
endfacet
facet normal 0.0 0.0 -1.0
  outer loop
    vertex 11.075621543248294 -9.4863173137593 -9.86988268891764e-15
    vertex 13.855816334850541 -8.02332138579685 -9.86988268891764e-15
    vertex 13.932060670966107 -8.310339156669167 -9.86988268891764e-15
  endloop
endfacet
facet normal 0.0 0.0 -1.0
  outer loop
    vertex 13.932060670966107 -8.310339156669167 -9.86988268891764e-15
    vertex 13.855816334850541 -8.02332138579685 -9.86988268891764e-15
    vertex 16.99617383135497 -7.616760967255163 -9.86988268891764e-15
  endloop
endfacet
facet normal 0.0 0.0 -1.0
  outer loop
    vertex 13.932060670966107 -8.310339156669167 -9.86988268891764e-15
    vertex 16.99617383135497 -7.616760967255163 -9.86988268891764e-15
    vertex 16.995534539334198 -7.913732331012664 -9.86988268891764e-15
  endloop
endfacet
facet normal 0.0 0.0 -1.0
  outer loop
    vertex 16.995534539334198 -7.913732331012664 -9.86988268891764e-15
    vertex 16.99617383135497 -7.616760967255163 -9.86988268891764e-15
    vertex 20.057272466848747 -8.323524936536211 -9.86988268891764e-15
  endloop
endfacet
facet normal 0.0 0.0 -1.0
  outer loop
    vertex 20.057272466848747 -8.323524936536211 -9.86988268891764e-15
    vertex 16.99617383135497 -7.616760967255163 -9.86988268891764e-15
    vertex 20.13475182031242 -8.036838087565096 -9.86988268891764e-15
  endloop
endfacet
facet normal 0.0 0.0 -1.0
  outer loop
    vertex 20.057272466848747 -8.323524936536211 -9.86988268891764e-15
    vertex 20.13475182031242 -8.036838087565096 -9.86988268891764e-15
    vertex 22.90862207351076 -9.511790284386313 -9.86988268891764e-15
  endloop
endfacet
facet normal 0.0 0.0 -1.0
  outer loop
    vertex 22.90862207351076 -9.511790284386313 -9.86988268891764e-15
    vertex 20.13475182031242 -8.036838087565096 -9.86988268891764e-15
    vertex 23.057661398520807 -9.254925185187064 -9.86988268891764e-15
  endloop
endfacet
facet normal 0.0 0.0 -1.0
  outer loop
    vertex 22.90862207351076 -9.511790284386313 -9.86988268891764e-15
    vertex 23.057661398520807 -9.254925185187064 -9.86988268891764e-15
    vertex 25.355268595707194 -11.397550054810281 -9.86988268891764e-15
  endloop
endfacet
facet normal 0.0 0.0 -1.0
  outer loop
    vertex 25.355268595707194 -11.397550054810281 -9.86988268891764e-15
    vertex 23.057661398520807 -9.254925185187064 -9.86988268891764e-15
    vertex 25.56571110856175 -11.18801163740281 -9.86988268891764e-15
  endloop
endfacet
facet normal 0.0 0.0 -1.0
  outer loop
    vertex 25.355268595707194 -11.397550054810281 -9.86988268891764e-15
    vertex 25.56571110856175 -11.18801163740281 -9.86988268891764e-15
    vertex 27.230477116223465 -13.852292835817956 -9.86988268891764e-15
  endloop
endfacet
facet normal 0.0 0.0 -1.0
  outer loop
    vertex 27.230477116223465 -13.852292835817956 -9.86988268891764e-15
    vertex 25.56571110856175 -11.18801163740281 -9.86988268891764e-15
    vertex 27.48798150744412 -13.70436079706969 -9.86988268891764e-15
  endloop
endfacet
facet normal 0.0 0.0 -1.0
  outer loop
    vertex 27.230477116223465 -13.852292835817956 -9.86988268891764e-15
    vertex 27.48798150744412 -13.70436079706969 -9.86988268891764e-15
    vertex 28.40645527331405 -16.708731963537033 -9.86988268891764e-15
  endloop
endfacet
facet normal 0.0 0.0 -1.0
  outer loop
    vertex 28.40645527331405 -16.708731963537033 -9.86988268891764e-15
    vertex 27.48798150744412 -13.70436079706969 -9.86988268891764e-15
    vertex 28.693473044185914 -16.632487627420474 -9.86988268891764e-15
  endloop
endfacet
facet normal 0.0 0.0 -1.0
  outer loop
    vertex 28.40645527331405 -16.708731963537033 -9.86988268891764e-15
    vertex 28.693473044185914 -16.632487627420474 -9.86988268891764e-15
    vertex 28.803062098970102 -19.772205831903676 -9.86988268891764e-15
  endloop
endfacet
facet normal 0.0 0.0 -1.0
  outer loop
    vertex 28.803062098970102 -19.772205831903676 -9.86988268891764e-15
    vertex 28.693473044185914 -16.632487627420474 -9.86988268891764e-15
    vertex 29.100033462727332 -19.77284512392499 -9.86988268891764e-15
  endloop
endfacet
facet normal 0.0 0.0 -1.0
  outer loop
    vertex 5.137061038442641 -19.72125989064893 -9.86988268891764e-15
    vertex 5.246650093226827 -22.860978095132136 -9.86988268891764e-15
    vertex 4.8400896746854105 -19.72062059862762 -9.86988268891764e-15
  endloop
endfacet
facet normal 0.0 0.0 -1.0
  outer loop
    vertex 5.246650093226827 -22.860978095132136 -9.86988268891764e-15
    vertex 5.137061038442641 -19.72125989064893 -9.86988268891764e-15
    vertex 5.5336678640986925 -22.784733759015577 -9.86988268891764e-15
  endloop
endfacet
facet normal 0.0 0.0 -1.0
  outer loop
    vertex 5.246650093226827 -22.860978095132136 -9.86988268891764e-15
    vertex 5.5336678640986925 -22.784733759015577 -9.86988268891764e-15
    vertex 6.452141629968626 -25.789104925482917 -9.86988268891764e-15
  endloop
endfacet
facet normal 0.0 0.0 -1.0
  outer loop
    vertex 6.452141629968626 -25.789104925482917 -9.86988268891764e-15
    vertex 5.5336678640986925 -22.784733759015577 -9.86988268891764e-15
    vertex 6.709646021189277 -25.64117288673465 -9.86988268891764e-15
  endloop
endfacet
facet normal 0.0 0.0 -1.0
  outer loop
    vertex 6.452141629968626 -25.789104925482917 -9.86988268891764e-15
    vertex 6.709646021189277 -25.64117288673465 -9.86988268891764e-15
    vertex 8.374412028850994 -28.3054540851498 -9.86988268891764e-15
  endloop
endfacet
facet normal 0.0 0.0 -1.0
  outer loop
    vertex 8.374412028850994 -28.3054540851498 -9.86988268891764e-15
    vertex 6.709646021189277 -25.64117288673465 -9.86988268891764e-15
    vertex 8.58485454170555 -28.09591566774233 -9.86988268891764e-15
  endloop
endfacet
facet normal 0.0 0.0 -1.0
  outer loop
    vertex 8.374412028850994 -28.3054540851498 -9.86988268891764e-15
    vertex 8.58485454170555 -28.09591566774233 -9.86988268891764e-15
    vertex 10.882461738891934 -30.238540537365544 -9.86988268891764e-15
  endloop
endfacet
facet normal 0.0 0.0 -1.0
  outer loop
    vertex 10.882461738891934 -30.238540537365544 -9.86988268891764e-15
    vertex 8.58485454170555 -28.09591566774233 -9.86988268891764e-15
    vertex 11.031501063901981 -29.981675438166295 -9.86988268891764e-15
  endloop
endfacet
facet normal 0.0 0.0 -1.0
  outer loop
    vertex 10.882461738891934 -30.238540537365544 -9.86988268891764e-15
    vertex 11.031501063901981 -29.981675438166295 -9.86988268891764e-15
    vertex 13.805371317100324 -31.456627634987512 -9.86988268891764e-15
  endloop
endfacet
facet normal 0.0 0.0 -1.0
  outer loop
    vertex 13.805371317100324 -31.456627634987512 -9.86988268891764e-15
    vertex 11.031501063901981 -29.981675438166295 -9.86988268891764e-15
    vertex 13.882850670563993 -31.169940786016397 -9.86988268891764e-15
  endloop
endfacet
facet normal 0.0 0.0 -1.0
  outer loop
    vertex 13.805371317100324 -31.456627634987512 -9.86988268891764e-15
    vertex 13.882850670563993 -31.169940786016397 -9.86988268891764e-15
    vertex 16.943949306057775 -31.876704755297446 -9.86988268891764e-15
  endloop
endfacet
facet normal 0.0 0.0 -1.0
  outer loop
    vertex 16.943949306057775 -31.876704755297446 -9.86988268891764e-15
    vertex 13.882850670563993 -31.169940786016397 -9.86988268891764e-15
    vertex 16.944588598078546 -31.579733391539946 -9.86988268891764e-15
  endloop
endfacet
facet normal 0.0 0.0 -1.0
  outer loop
    vertex 16.943949306057775 -31.876704755297446 -9.86988268891764e-15
    vertex 16.944588598078546 -31.579733391539946 -9.86988268891764e-15
    vertex 20.084306802562203 -31.47014433675576 -9.86988268891764e-15
  endloop
endfacet
facet normal 0.0 0.0 -1.0
  outer loop
    vertex 20.084306802562203 -31.47014433675576 -9.86988268891764e-15
    vertex 16.944588598078546 -31.579733391539946 -9.86988268891764e-15
    vertex 20.008062466446635 -31.18312656588344 -9.86988268891764e-15
  endloop
endfacet
facet normal 0.0 0.0 -1.0
  outer loop
    vertex 20.084306802562203 -31.47014433675576 -9.86988268891764e-15
    vertex 20.008062466446635 -31.18312656588344 -9.86988268891764e-15
    vertex 22.864501594164448 -30.00714840879331 -9.86988268891764e-15
  endloop
endfacet
facet normal 0.0 0.0 -1.0
  outer loop
    vertex 20.084306802562203 -31.47014433675576 -9.86988268891764e-15
    vertex 22.864501594164448 -30.00714840879331 -9.86988268891764e-15
    vertex 23.012433632912895 -30.26465280001387 -9.86988268891764e-15
  endloop
endfacet
facet normal 0.0 0.0 -1.0
  outer loop
    vertex 23.012433632912895 -30.26465280001387 -9.86988268891764e-15
    vertex 22.864501594164448 -30.00714840879331 -9.86988268891764e-15
    vertex 25.319244375172484 -28.131939888277127 -9.86988268891764e-15
  endloop
endfacet
facet normal 0.0 0.0 -1.0
  outer loop
    vertex 23.012433632912895 -30.26465280001387 -9.86988268891764e-15
    vertex 25.319244375172484 -28.131939888277127 -9.86988268891764e-15
    vertex 25.528782792579868 -28.342382401131683 -9.86988268891764e-15
  endloop
endfacet
facet normal 0.0 0.0 -1.0
  outer loop
    vertex 25.528782792579868 -28.342382401131683 -9.86988268891764e-15
    vertex 25.319244375172484 -28.131939888277127 -9.86988268891764e-15
    vertex 27.20500414559591 -25.685293366081236 -9.86988268891764e-15
  endloop
endfacet
facet normal 0.0 0.0 -1.0
  outer loop
    vertex 25.528782792579868 -28.342382401131683 -9.86988268891764e-15
    vertex 27.20500414559591 -25.685293366081236 -9.86988268891764e-15
    vertex 27.461869244795523 -25.834332691090832 -9.86988268891764e-15
  endloop
endfacet
facet normal 0.0 0.0 -1.0
  outer loop
    vertex 27.461869244795523 -25.834332691090832 -9.86988268891764e-15
    vertex 27.20500414559591 -25.685293366081236 -9.86988268891764e-15
    vertex 28.393269493446557 -22.83394375941814 -9.86988268891764e-15
  endloop
endfacet
facet normal 0.0 0.0 -1.0
  outer loop
    vertex 27.461869244795523 -25.834332691090832 -9.86988268891764e-15
    vertex 28.393269493446557 -22.83394375941814 -9.86988268891764e-15
    vertex 28.67995634241758 -22.91142311288226 -9.86988268891764e-15
  endloop
endfacet
facet normal 0.0 0.0 -1.0
  outer loop
    vertex 28.67995634241758 -22.91142311288226 -9.86988268891764e-15
    vertex 28.393269493446557 -22.83394375941814 -9.86988268891764e-15
    vertex 28.803062098970102 -19.772205831903676 -9.86988268891764e-15
  endloop
endfacet
facet normal 0.0 0.0 -1.0
  outer loop
    vertex 28.67995634241758 -22.91142311288226 -9.86988268891764e-15
    vertex 28.803062098970102 -19.772205831903676 -9.86988268891764e-15
    vertex 29.100033462727332 -19.77284512392499 -9.86988268891764e-15
  endloop
endfacet
facet normal 0.0 0.0 1.0
  outer loop
    vertex 5.246650093226827 -22.860978095132136 0.8749999999999899
    vertex 5.189002058060376 -19.721371704390766 0.8749999999999899
    vertex 4.8400896746854105 -19.72062059862762 0.8749999999999899
  endloop
endfacet
facet normal 0.0 0.0 1.0
  outer loop
    vertex 5.189002058060376 -19.721371704390766 0.8749999999999899
    vertex 5.246650093226827 -22.860978095132136 0.8749999999999899
    vertex 5.583867975917138 -22.771398437697233 0.8749999999999899
  endloop
endfacet
facet normal 0.0 0.0 1.0
  outer loop
    vertex 5.583867975917138 -22.771398437697233 0.8749999999999899
    vertex 5.246650093226827 -22.860978095132136 0.8749999999999899
    vertex 6.452141629968626 -25.789104925482917 0.8749999999999899
  endloop
endfacet
facet normal 0.0 0.0 1.0
  outer loop
    vertex 5.583867975917138 -22.771398437697233 0.8749999999999899
    vertex 6.452141629968626 -25.789104925482917 0.8749999999999899
    vertex 6.754684170547915 -25.615299210467256 0.8749999999999899
  endloop
endfacet
facet normal 0.0 0.0 1.0
  outer loop
    vertex 6.754684170547915 -25.615299210467256 0.8749999999999899
    vertex 6.452141629968626 -25.789104925482917 0.8749999999999899
    vertex 8.374412028850994 -28.3054540851498 0.8749999999999899
  endloop
endfacet
facet normal 0.0 0.0 1.0
  outer loop
    vertex 6.754684170547915 -25.615299210467256 0.8749999999999899
    vertex 8.374412028850994 -28.3054540851498 0.8749999999999899
    vertex 8.62166145315386 -28.059266884803684 0.8749999999999899
  endloop
endfacet
facet normal 0.0 0.0 1.0
  outer loop
    vertex 8.62166145315386 -28.059266884803684 0.8749999999999899
    vertex 8.374412028850994 -28.3054540851498 0.8749999999999899
    vertex 10.882461738891934 -30.238540537365544 0.8749999999999899
  endloop
endfacet
facet normal 0.0 0.0 1.0
  outer loop
    vertex 8.62166145315386 -28.059266884803684 0.8749999999999899
    vertex 10.882461738891934 -30.238540537365544 0.8749999999999899
    vertex 11.057568407251779 -29.936749102549854 0.8749999999999899
  endloop
endfacet
facet normal 0.0 0.0 1.0
  outer loop
    vertex 11.057568407251779 -29.936749102549854 0.8749999999999899
    vertex 10.882461738891934 -30.238540537365544 0.8749999999999899
    vertex 13.805371317100324 -31.456627634987512 0.8749999999999899
  endloop
endfacet
facet normal 0.0 0.0 1.0
  outer loop
    vertex 11.057568407251779 -29.936749102549854 0.8749999999999899
    vertex 13.805371317100324 -31.456627634987512 0.8749999999999899
    vertex 13.896401999444608 -31.119798553250106 0.8749999999999899
  endloop
endfacet
facet normal 0.0 0.0 1.0
  outer loop
    vertex 13.896401999444608 -31.119798553250106 0.8749999999999899
    vertex 13.805371317100324 -31.456627634987512 0.8749999999999899
    vertex 16.943949306057775 -31.876704755297446 0.8749999999999899
  endloop
endfacet
facet normal 0.0 0.0 1.0
  outer loop
    vertex 13.896401999444608 -31.119798553250106 0.8749999999999899
    vertex 16.943949306057775 -31.876704755297446 0.8749999999999899
    vertex 16.944700411820563 -31.52779237192248 0.8749999999999899
  endloop
endfacet
facet normal 0.0 0.0 1.0
  outer loop
    vertex 16.944700411820563 -31.52779237192248 0.8749999999999899
    vertex 16.943949306057775 -31.876704755297446 0.8749999999999899
    vertex 20.084306802562203 -31.47014433675576 0.8749999999999899
  endloop
endfacet
facet normal 0.0 0.0 1.0
  outer loop
    vertex 16.944700411820563 -31.52779237192248 0.8749999999999899
    vertex 20.084306802562203 -31.47014433675576 0.8749999999999899
    vertex 19.99472714512694 -31.132926454065448 0.8749999999999899
  endloop
endfacet
facet normal 0.0 0.0 1.0
  outer loop
    vertex 19.99472714512694 -31.132926454065448 0.8749999999999899
    vertex 20.084306802562203 -31.47014433675576 0.8749999999999899
    vertex 22.83862791789723 -29.96211025943431 0.8749999999999899
  endloop
endfacet
facet normal 0.0 0.0 1.0
  outer loop
    vertex 22.83862791789723 -29.96211025943431 0.8749999999999899
    vertex 20.084306802562203 -31.47014433675576 0.8749999999999899
    vertex 23.012433632912895 -30.26465280001387 0.8749999999999899
  endloop
endfacet
facet normal 0.0 0.0 1.0
  outer loop
    vertex 22.83862791789723 -29.96211025943431 0.8749999999999899
    vertex 23.012433632912895 -30.26465280001387 0.8749999999999899
    vertex 25.28259559223429 -28.095132976828452 0.8749999999999899
  endloop
endfacet
facet normal 0.0 0.0 1.0
  outer loop
    vertex 25.28259559223429 -28.095132976828452 0.8749999999999899
    vertex 23.012433632912895 -30.26465280001387 0.8749999999999899
    vertex 25.528782792579868 -28.342382401131683 0.8749999999999899
  endloop
endfacet
facet normal 0.0 0.0 1.0
  outer loop
    vertex 25.28259559223429 -28.095132976828452 0.8749999999999899
    vertex 25.528782792579868 -28.342382401131683 0.8749999999999899
    vertex 27.16007780997947 -25.65922602273153 0.8749999999999899
  endloop
endfacet
facet normal 0.0 0.0 1.0
  outer loop
    vertex 27.16007780997947 -25.65922602273153 0.8749999999999899
    vertex 25.528782792579868 -28.342382401131683 0.8749999999999899
    vertex 27.461869244795523 -25.834332691090832 0.8749999999999899
  endloop
endfacet
facet normal 0.0 0.0 1.0
  outer loop
    vertex 27.16007780997947 -25.65922602273153 0.8749999999999899
    vertex 27.461869244795523 -25.834332691090832 0.8749999999999899
    vertex 28.3431272606799 -22.820392430538067 0.8749999999999899
  endloop
endfacet
facet normal 0.0 0.0 1.0
  outer loop
    vertex 28.3431272606799 -22.820392430538067 0.8749999999999899
    vertex 27.461869244795523 -25.834332691090832 0.8749999999999899
    vertex 28.67995634241758 -22.91142311288226 0.8749999999999899
  endloop
endfacet
facet normal 0.0 0.0 1.0
  outer loop
    vertex 28.3431272606799 -22.820392430538067 0.8749999999999899
    vertex 28.67995634241758 -22.91142311288226 0.8749999999999899
    vertex 28.751121079352366 -19.77209401816184 0.8749999999999899
  endloop
endfacet
facet normal 0.0 0.0 1.0
  outer loop
    vertex 28.751121079352366 -19.77209401816184 0.8749999999999899
    vertex 28.67995634241758 -22.91142311288226 0.8749999999999899
    vertex 29.100033462727332 -19.77284512392499 0.8749999999999899
  endloop
endfacet
facet normal 0.0 0.0 1.0
  outer loop
    vertex 5.189002058060376 -19.721371704390766 0.8749999999999899
    vertex 5.260166794995162 -16.582042609670346 0.8749999999999899
    vertex 4.8400896746854105 -19.72062059862762 0.8749999999999899
  endloop
endfacet
facet normal 0.0 0.0 1.0
  outer loop
    vertex 5.260166794995162 -16.582042609670346 0.8749999999999899
    vertex 5.189002058060376 -19.721371704390766 0.8749999999999899
    vertex 5.596995876732842 -16.67307329201454 0.8749999999999899
  endloop
endfacet
facet normal 0.0 0.0 1.0
  outer loop
    vertex 5.260166794995162 -16.582042609670346 0.8749999999999899
    vertex 5.596995876732842 -16.67307329201454 0.8749999999999899
    vertex 6.4782538926172215 -13.659133031461778 0.8749999999999899
  endloop
endfacet
facet normal 0.0 0.0 1.0
  outer loop
    vertex 6.4782538926172215 -13.659133031461778 0.8749999999999899
    vertex 5.596995876732842 -16.67307329201454 0.8749999999999899
    vertex 6.780045327433272 -13.83423969982108 0.8749999999999899
  endloop
endfacet
facet normal 0.0 0.0 1.0
  outer loop
    vertex 6.4782538926172215 -13.659133031461778 0.8749999999999899
    vertex 6.780045327433272 -13.83423969982108 0.8749999999999899
    vertex 8.411340344832876 -11.151083321420927 0.8749999999999899
  endloop
endfacet
facet normal 0.0 0.0 1.0
  outer loop
    vertex 8.411340344832876 -11.151083321420927 0.8749999999999899
    vertex 6.780045327433272 -13.83423969982108 0.8749999999999899
    vertex 8.657527545178452 -11.398332745724154 0.8749999999999899
  endloop
endfacet
facet normal 0.0 0.0 1.0
  outer loop
    vertex 8.411340344832876 -11.151083321420927 0.8749999999999899
    vertex 8.657527545178452 -11.398332745724154 0.8749999999999899
    vertex 10.927689504499847 -9.228812922538738 0.8749999999999899
  endloop
endfacet
facet normal 0.0 0.0 1.0
  outer loop
    vertex 10.927689504499847 -9.228812922538738 0.8749999999999899
    vertex 8.657527545178452 -11.398332745724154 0.8749999999999899
    vertex 11.101495219515511 -9.531355463118299 0.8749999999999899
  endloop
endfacet
facet normal 0.0 0.0 1.0
  outer loop
    vertex 10.927689504499847 -9.228812922538738 0.8749999999999899
    vertex 11.101495219515511 -9.531355463118299 0.8749999999999899
    vertex 13.855816334850541 -8.02332138579685 0.8749999999999899
  endloop
endfacet
facet normal 0.0 0.0 1.0
  outer loop
    vertex 13.855816334850541 -8.02332138579685 0.8749999999999899
    vertex 11.101495219515511 -9.531355463118299 0.8749999999999899
    vertex 13.945395992285803 -8.36053926848716 0.8749999999999899
  endloop
endfacet
facet normal 0.0 0.0 1.0
  outer loop
    vertex 13.855816334850541 -8.02332138579685 0.8749999999999899
    vertex 13.945395992285803 -8.36053926848716 0.8749999999999899
    vertex 16.99617383135497 -7.616760967255163 0.8749999999999899
  endloop
endfacet
facet normal 0.0 0.0 1.0
  outer loop
    vertex 16.99617383135497 -7.616760967255163 0.8749999999999899
    vertex 13.945395992285803 -8.36053926848716 0.8749999999999899
    vertex 16.99542272559218 -7.965673350630129 0.8749999999999899
  endloop
endfacet
facet normal 0.0 0.0 1.0
  outer loop
    vertex 16.99617383135497 -7.616760967255163 0.8749999999999899
    vertex 16.99542272559218 -7.965673350630129 0.8749999999999899
    vertex 20.043721137968134 -8.373667169302504 0.8749999999999899
  endloop
endfacet
facet normal 0.0 0.0 1.0
  outer loop
    vertex 16.99617383135497 -7.616760967255163 0.8749999999999899
    vertex 20.043721137968134 -8.373667169302504 0.8749999999999899
    vertex 20.13475182031242 -8.036838087565096 0.8749999999999899
  endloop
endfacet
facet normal 0.0 0.0 1.0
  outer loop
    vertex 20.13475182031242 -8.036838087565096 0.8749999999999899
    vertex 20.043721137968134 -8.373667169302504 0.8749999999999899
    vertex 22.882554730160965 -9.556716620002753 0.8749999999999899
  endloop
endfacet
facet normal 0.0 0.0 1.0
  outer loop
    vertex 20.13475182031242 -8.036838087565096 0.8749999999999899
    vertex 22.882554730160965 -9.556716620002753 0.8749999999999899
    vertex 23.057661398520807 -9.254925185187064 0.8749999999999899
  endloop
endfacet
facet normal 0.0 0.0 1.0
  outer loop
    vertex 23.057661398520807 -9.254925185187064 0.8749999999999899
    vertex 22.882554730160965 -9.556716620002753 0.8749999999999899
    vertex 25.31846168425888 -11.434198837748925 0.8749999999999899
  endloop
endfacet
facet normal 0.0 0.0 1.0
  outer loop
    vertex 23.057661398520807 -9.254925185187064 0.8749999999999899
    vertex 25.31846168425888 -11.434198837748925 0.8749999999999899
    vertex 25.56571110856175 -11.18801163740281 0.8749999999999899
  endloop
endfacet
facet normal 0.0 0.0 1.0
  outer loop
    vertex 25.56571110856175 -11.18801163740281 0.8749999999999899
    vertex 25.31846168425888 -11.434198837748925 0.8749999999999899
    vertex 27.18543896686483 -13.878166512085354 0.8749999999999899
  endloop
endfacet
facet normal 0.0 0.0 1.0
  outer loop
    vertex 25.56571110856175 -11.18801163740281 0.8749999999999899
    vertex 27.18543896686483 -13.878166512085354 0.8749999999999899
    vertex 27.48798150744412 -13.70436079706969 0.8749999999999899
  endloop
endfacet
facet normal 0.0 0.0 1.0
  outer loop
    vertex 27.48798150744412 -13.70436079706969 0.8749999999999899
    vertex 27.18543896686483 -13.878166512085354 0.8749999999999899
    vertex 28.356255161495604 -16.722067284855374 0.8749999999999899
  endloop
endfacet
facet normal 0.0 0.0 1.0
  outer loop
    vertex 27.48798150744412 -13.70436079706969 0.8749999999999899
    vertex 28.356255161495604 -16.722067284855374 0.8749999999999899
    vertex 28.693473044185914 -16.632487627420474 0.8749999999999899
  endloop
endfacet
facet normal 0.0 0.0 1.0
  outer loop
    vertex 28.693473044185914 -16.632487627420474 0.8749999999999899
    vertex 28.356255161495604 -16.722067284855374 0.8749999999999899
    vertex 28.751121079352366 -19.77209401816184 0.8749999999999899
  endloop
endfacet
facet normal 0.0 0.0 1.0
  outer loop
    vertex 28.693473044185914 -16.632487627420474 0.8749999999999899
    vertex 28.751121079352366 -19.77209401816184 0.8749999999999899
    vertex 29.100033462727332 -19.77284512392499 0.8749999999999899
  endloop
endfacet
facet normal 0.0 0.0 1.0
  outer loop
    vertex 5.583867975917138 -22.771398437697233 0.8249999999999901
    vertex 5.596995876732842 -16.67307329201454 0.8249999999999901
    vertex 5.189002058060376 -19.721371704390766 0.8249999999999901
  endloop
endfacet
facet normal 0.0 0.0 1.0
  outer loop
    vertex 5.596995876732842 -16.67307329201454 0.8249999999999901
    vertex 5.583867975917138 -22.771398437697233 0.8249999999999901
    vertex 6.754684170547915 -25.615299210467256 0.8249999999999901
  endloop
endfacet
facet normal 0.0 0.0 1.0
  outer loop
    vertex 5.596995876732842 -16.67307329201454 0.8249999999999901
    vertex 6.754684170547915 -25.615299210467256 0.8249999999999901
    vertex 6.780045327433272 -13.83423969982108 0.8249999999999901
  endloop
endfacet
facet normal 0.0 0.0 1.0
  outer loop
    vertex 6.780045327433272 -13.83423969982108 0.8249999999999901
    vertex 6.754684170547915 -25.615299210467256 0.8249999999999901
    vertex 8.62166145315386 -28.059266884803684 0.8249999999999901
  endloop
endfacet
facet normal 0.0 0.0 1.0
  outer loop
    vertex 6.780045327433272 -13.83423969982108 0.8249999999999901
    vertex 8.62166145315386 -28.059266884803684 0.8249999999999901
    vertex 8.657527545178452 -11.398332745724154 0.8249999999999901
  endloop
endfacet
facet normal 0.0 0.0 1.0
  outer loop
    vertex 8.657527545178452 -11.398332745724154 0.8249999999999901
    vertex 8.62166145315386 -28.059266884803684 0.8249999999999901
    vertex 11.057568407251779 -29.936749102549854 0.8249999999999901
  endloop
endfacet
facet normal 0.0 0.0 1.0
  outer loop
    vertex 8.657527545178452 -11.398332745724154 0.8249999999999901
    vertex 11.057568407251779 -29.936749102549854 0.8249999999999901
    vertex 11.101495219515511 -9.531355463118299 0.8249999999999901
  endloop
endfacet
facet normal 0.0 0.0 1.0
  outer loop
    vertex 11.101495219515511 -9.531355463118299 0.8249999999999901
    vertex 11.057568407251779 -29.936749102549854 0.8249999999999901
    vertex 13.896401999444608 -31.119798553250106 0.8249999999999901
  endloop
endfacet
facet normal 0.0 0.0 1.0
  outer loop
    vertex 11.101495219515511 -9.531355463118299 0.8249999999999901
    vertex 13.896401999444608 -31.119798553250106 0.8249999999999901
    vertex 13.945395992285803 -8.36053926848716 0.8249999999999901
  endloop
endfacet
facet normal 0.0 0.0 1.0
  outer loop
    vertex 13.945395992285803 -8.36053926848716 0.8249999999999901
    vertex 13.896401999444608 -31.119798553250106 0.8249999999999901
    vertex 16.944700411820563 -31.52779237192248 0.8249999999999901
  endloop
endfacet
facet normal 0.0 0.0 1.0
  outer loop
    vertex 13.945395992285803 -8.36053926848716 0.8249999999999901
    vertex 16.944700411820563 -31.52779237192248 0.8249999999999901
    vertex 16.99542272559218 -7.965673350630129 0.8249999999999901
  endloop
endfacet
facet normal 0.0 0.0 1.0
  outer loop
    vertex 16.99542272559218 -7.965673350630129 0.8249999999999901
    vertex 16.944700411820563 -31.52779237192248 0.8249999999999901
    vertex 19.99472714512694 -31.132926454065448 0.8249999999999901
  endloop
endfacet
facet normal 0.0 0.0 1.0
  outer loop
    vertex 16.99542272559218 -7.965673350630129 0.8249999999999901
    vertex 19.99472714512694 -31.132926454065448 0.8249999999999901
    vertex 20.043721137968134 -8.373667169302504 0.8249999999999901
  endloop
endfacet
facet normal 0.0 0.0 1.0
  outer loop
    vertex 20.043721137968134 -8.373667169302504 0.8249999999999901
    vertex 19.99472714512694 -31.132926454065448 0.8249999999999901
    vertex 22.83862791789723 -29.96211025943431 0.8249999999999901
  endloop
endfacet
facet normal 0.0 0.0 1.0
  outer loop
    vertex 20.043721137968134 -8.373667169302504 0.8249999999999901
    vertex 22.83862791789723 -29.96211025943431 0.8249999999999901
    vertex 22.882554730160965 -9.556716620002753 0.8249999999999901
  endloop
endfacet
facet normal 0.0 0.0 1.0
  outer loop
    vertex 22.882554730160965 -9.556716620002753 0.8249999999999901
    vertex 22.83862791789723 -29.96211025943431 0.8249999999999901
    vertex 25.28259559223429 -28.095132976828452 0.8249999999999901
  endloop
endfacet
facet normal 0.0 0.0 1.0
  outer loop
    vertex 22.882554730160965 -9.556716620002753 0.8249999999999901
    vertex 25.28259559223429 -28.095132976828452 0.8249999999999901
    vertex 25.31846168425888 -11.434198837748925 0.8249999999999901
  endloop
endfacet
facet normal 0.0 0.0 1.0
  outer loop
    vertex 25.31846168425888 -11.434198837748925 0.8249999999999901
    vertex 25.28259559223429 -28.095132976828452 0.8249999999999901
    vertex 27.16007780997947 -25.65922602273153 0.8249999999999901
  endloop
endfacet
facet normal 0.0 0.0 1.0
  outer loop
    vertex 25.31846168425888 -11.434198837748925 0.8249999999999901
    vertex 27.16007780997947 -25.65922602273153 0.8249999999999901
    vertex 27.18543896686483 -13.878166512085354 0.8249999999999901
  endloop
endfacet
facet normal 0.0 0.0 1.0
  outer loop
    vertex 27.18543896686483 -13.878166512085354 0.8249999999999901
    vertex 27.16007780997947 -25.65922602273153 0.8249999999999901
    vertex 28.3431272606799 -22.820392430538067 0.8249999999999901
  endloop
endfacet
facet normal 0.0 0.0 1.0
  outer loop
    vertex 27.18543896686483 -13.878166512085354 0.8249999999999901
    vertex 28.3431272606799 -22.820392430538067 0.8249999999999901
    vertex 28.356255161495604 -16.722067284855374 0.8249999999999901
  endloop
endfacet
facet normal 0.0 0.0 1.0
  outer loop
    vertex 28.356255161495604 -16.722067284855374 0.8249999999999901
    vertex 28.3431272606799 -22.820392430538067 0.8249999999999901
    vertex 28.751121079352366 -19.77209401816184 0.8249999999999901
  endloop
endfacet
facet normal 0.8670997476288227 0.4981345477499347 0.0
  outer loop
    vertex 6.754684170547915 -25.615299210467256 0.8249999999999901
    vertex 8.62166145315386 -28.059266884803684 0.8749999999999899
    vertex 8.62166145315386 -28.059266884803684 0.8249999999999901
  endloop
endfacet
facet normal 0.7086273322222169 0.7055829533283978 0.0
  outer loop
    vertex 8.62166145315386 -28.059266884803684 0.8749999999999899
    vertex 6.754684170547915 -25.615299210467256 0.8249999999999901
    vertex 6.754684170547915 -25.615299210467256 0.8749999999999899
  endloop
endfacet
facet normal 0.7086273322222169 0.7055829533283978 0.0
  outer loop
    vertex 8.62166145315386 -28.059266884803684 0.8749999999999899
    vertex 11.057568407251779 -29.936749102549854 0.8249999999999901
    vertex 8.62166145315386 -28.059266884803684 0.8249999999999901
  endloop
endfacet
facet normal 0.5018631351867088 0.8649470466685041 0.0
  outer loop
    vertex 11.057568407251779 -29.936749102549854 0.8249999999999901
    vertex 8.62166145315386 -28.059266884803684 0.8749999999999899
    vertex 11.057568407251779 -29.936749102549854 0.8749999999999899
  endloop
endfacet
facet normal 0.5018631351867088 0.8649470466685041 0.0
  outer loop
    vertex 11.057568407251779 -29.936749102549854 0.8749999999999899
    vertex 13.896401999444608 -31.119798553250106 0.8249999999999901
    vertex 11.057568407251779 -29.936749102549854 0.8249999999999901
  endloop
endfacet
facet normal 0.2608977948562173 0.965366428170756 0.0
  outer loop
    vertex 13.896401999444608 -31.119798553250106 0.8249999999999901
    vertex 11.057568407251779 -29.936749102549854 0.8749999999999899
    vertex 13.896401999444608 -31.119798553250106 0.8749999999999899
  endloop
endfacet
facet normal 0.2608977948562173 0.965366428170756 0.0
  outer loop
    vertex 13.896401999444608 -31.119798553250106 0.8749999999999899
    vertex 16.944700411820563 -31.52779237192248 0.8249999999999901
    vertex 13.896401999444608 -31.119798553250106 0.8249999999999901
  endloop
endfacet
facet normal 0.0021527009602725212 0.9999976829366035 0.0
  outer loop
    vertex 16.944700411820563 -31.52779237192248 0.8249999999999901
    vertex 13.896401999444608 -31.119798553250106 0.8749999999999899
    vertex 16.944700411820563 -31.52779237192248 0.8749999999999899
  endloop
endfacet
facet normal 0.0021527009602725212 0.9999976829366035 0.0
  outer loop
    vertex 16.944700411820563 -31.52779237192248 0.8749999999999899
    vertex 19.99472714512694 -31.132926454065448 0.8249999999999901
    vertex 16.944700411820563 -31.52779237192248 0.8249999999999901
  endloop
endfacet
facet normal -0.2567390959486021 0.9664807481846158 0.0
  outer loop
    vertex 19.99472714512694 -31.132926454065448 0.8249999999999901
    vertex 16.944700411820563 -31.52779237192248 0.8749999999999899
    vertex 19.99472714512694 -31.132926454065448 0.8749999999999899
  endloop
endfacet
facet normal -0.2567390959486021 0.9664807481846158 0.0
  outer loop
    vertex 19.99472714512694 -31.132926454065448 0.8749999999999899
    vertex 22.83862791789723 -29.96211025943431 0.8249999999999901
    vertex 19.99472714512694 -31.132926454065448 0.8249999999999901
  endloop
endfacet
facet normal -0.4981345477499032 0.867099747628841 0.0
  outer loop
    vertex 22.83862791789723 -29.96211025943431 0.8249999999999901
    vertex 19.99472714512694 -31.132926454065448 0.8749999999999899
    vertex 22.83862791789723 -29.96211025943431 0.8749999999999899
  endloop
endfacet
facet normal -0.4981345477499032 0.867099747628841 0.0
  outer loop
    vertex 22.83862791789723 -29.96211025943431 0.8749999999999899
    vertex 25.28259559223429 -28.095132976828452 0.8249999999999901
    vertex 22.83862791789723 -29.96211025943431 0.8249999999999901
  endloop
endfacet
facet normal -0.7055829533283663 0.7086273322222483 0.0
  outer loop
    vertex 25.28259559223429 -28.095132976828452 0.8249999999999901
    vertex 22.83862791789723 -29.96211025943431 0.8749999999999899
    vertex 25.28259559223429 -28.095132976828452 0.8749999999999899
  endloop
endfacet
facet normal -0.864947046668525 0.5018631351866727 0.0
  outer loop
    vertex 27.16007780997947 -25.65922602273153 0.8749999999999899
    vertex 25.28259559223429 -28.095132976828452 0.8249999999999901
    vertex 25.28259559223429 -28.095132976828452 0.8749999999999899
  endloop
endfacet
facet normal -0.7055829533283663 0.7086273322222483 0.0
  outer loop
    vertex 25.28259559223429 -28.095132976828452 0.8249999999999901
    vertex 27.16007780997947 -25.65922602273153 0.8749999999999899
    vertex 27.16007780997947 -25.65922602273153 0.8249999999999901
  endloop
endfacet
facet normal -0.9653664281707569 0.2608977948562137 0.0
  outer loop
    vertex 28.3431272606799 -22.820392430538067 0.8749999999999899
    vertex 27.16007780997947 -25.65922602273153 0.8249999999999901
    vertex 27.16007780997947 -25.65922602273153 0.8749999999999899
  endloop
endfacet
facet normal -0.864947046668525 0.5018631351866727 0.0
  outer loop
    vertex 27.16007780997947 -25.65922602273153 0.8249999999999901
    vertex 28.3431272606799 -22.820392430538067 0.8749999999999899
    vertex 28.3431272606799 -22.820392430538067 0.8249999999999901
  endloop
endfacet
facet normal -0.9999976829366034 0.0021527009603267617 0.0
  outer loop
    vertex 28.751121079352366 -19.77209401816184 0.8749999999999899
    vertex 28.3431272606799 -22.820392430538067 0.8249999999999901
    vertex 28.3431272606799 -22.820392430538067 0.8749999999999899
  endloop
endfacet
facet normal -0.9653664281707569 0.2608977948562137 0.0
  outer loop
    vertex 28.3431272606799 -22.820392430538067 0.8249999999999901
    vertex 28.751121079352366 -19.77209401816184 0.8749999999999899
    vertex 28.751121079352366 -19.77209401816184 0.8249999999999901
  endloop
endfacet
facet normal -0.966480748184637 -0.2567390959485218 0.0
  outer loop
    vertex 28.356255161495604 -16.722067284855374 0.8749999999999899
    vertex 28.751121079352366 -19.77209401816184 0.8249999999999901
    vertex 28.751121079352366 -19.77209401816184 0.8749999999999899
  endloop
endfacet
facet normal -0.9999976829366034 0.0021527009603267617 0.0
  outer loop
    vertex 28.751121079352366 -19.77209401816184 0.8249999999999901
    vertex 28.356255161495604 -16.722067284855374 0.8749999999999899
    vertex 28.356255161495604 -16.722067284855374 0.8249999999999901
  endloop
endfacet
facet normal -0.8670997476288227 -0.4981345477499347 0.0
  outer loop
    vertex 27.18543896686483 -13.878166512085354 0.8749999999999899
    vertex 28.356255161495604 -16.722067284855374 0.8249999999999901
    vertex 28.356255161495604 -16.722067284855374 0.8749999999999899
  endloop
endfacet
facet normal -0.966480748184637 -0.2567390959485218 0.0
  outer loop
    vertex 28.356255161495604 -16.722067284855374 0.8249999999999901
    vertex 27.18543896686483 -13.878166512085354 0.8749999999999899
    vertex 27.18543896686483 -13.878166512085354 0.8249999999999901
  endloop
endfacet
facet normal -0.7086273322222169 -0.7055829533283978 0.0
  outer loop
    vertex 25.31846168425888 -11.434198837748925 0.8749999999999899
    vertex 27.18543896686483 -13.878166512085354 0.8249999999999901
    vertex 27.18543896686483 -13.878166512085354 0.8749999999999899
  endloop
endfacet
facet normal -0.8670997476288227 -0.4981345477499347 0.0
  outer loop
    vertex 27.18543896686483 -13.878166512085354 0.8249999999999901
    vertex 25.31846168425888 -11.434198837748925 0.8749999999999899
    vertex 25.31846168425888 -11.434198837748925 0.8249999999999901
  endloop
endfacet
facet normal -0.7086273322222169 -0.7055829533283978 0.0
  outer loop
    vertex 25.31846168425888 -11.434198837748925 0.8749999999999899
    vertex 22.882554730160965 -9.556716620002753 0.8249999999999901
    vertex 25.31846168425888 -11.434198837748925 0.8249999999999901
  endloop
endfacet
facet normal -0.5018631351867088 -0.8649470466685041 0.0
  outer loop
    vertex 22.882554730160965 -9.556716620002753 0.8249999999999901
    vertex 25.31846168425888 -11.434198837748925 0.8749999999999899
    vertex 22.882554730160965 -9.556716620002753 0.8749999999999899
  endloop
endfacet
facet normal -0.5018631351867088 -0.8649470466685041 0.0
  outer loop
    vertex 22.882554730160965 -9.556716620002753 0.8749999999999899
    vertex 20.043721137968134 -8.373667169302504 0.8249999999999901
    vertex 22.882554730160965 -9.556716620002753 0.8249999999999901
  endloop
endfacet
facet normal -0.2608977948562173 -0.965366428170756 0.0
  outer loop
    vertex 20.043721137968134 -8.373667169302504 0.8249999999999901
    vertex 22.882554730160965 -9.556716620002753 0.8749999999999899
    vertex 20.043721137968134 -8.373667169302504 0.8749999999999899
  endloop
endfacet
facet normal -0.2608977948562173 -0.965366428170756 0.0
  outer loop
    vertex 20.043721137968134 -8.373667169302504 0.8749999999999899
    vertex 16.99542272559218 -7.965673350630129 0.8249999999999901
    vertex 20.043721137968134 -8.373667169302504 0.8249999999999901
  endloop
endfacet
facet normal -0.0021527009602725212 -0.9999976829366035 0.0
  outer loop
    vertex 16.99542272559218 -7.965673350630129 0.8249999999999901
    vertex 20.043721137968134 -8.373667169302504 0.8749999999999899
    vertex 16.99542272559218 -7.965673350630129 0.8749999999999899
  endloop
endfacet
facet normal -0.0021527009602725212 -0.9999976829366035 0.0
  outer loop
    vertex 16.99542272559218 -7.965673350630129 0.8749999999999899
    vertex 13.945395992285803 -8.36053926848716 0.8249999999999901
    vertex 16.99542272559218 -7.965673350630129 0.8249999999999901
  endloop
endfacet
facet normal 0.2567390959486021 -0.9664807481846158 0.0
  outer loop
    vertex 13.945395992285803 -8.36053926848716 0.8249999999999901
    vertex 16.99542272559218 -7.965673350630129 0.8749999999999899
    vertex 13.945395992285803 -8.36053926848716 0.8749999999999899
  endloop
endfacet
facet normal 0.2567390959486021 -0.9664807481846158 0.0
  outer loop
    vertex 13.945395992285803 -8.36053926848716 0.8749999999999899
    vertex 11.101495219515511 -9.531355463118299 0.8249999999999901
    vertex 13.945395992285803 -8.36053926848716 0.8249999999999901
  endloop
endfacet
facet normal 0.4981345477499032 -0.867099747628841 0.0
  outer loop
    vertex 11.101495219515511 -9.531355463118299 0.8249999999999901
    vertex 13.945395992285803 -8.36053926848716 0.8749999999999899
    vertex 11.101495219515511 -9.531355463118299 0.8749999999999899
  endloop
endfacet
facet normal 0.4981345477499032 -0.867099747628841 0.0
  outer loop
    vertex 11.101495219515511 -9.531355463118299 0.8749999999999899
    vertex 8.657527545178452 -11.398332745724154 0.8249999999999901
    vertex 11.101495219515511 -9.531355463118299 0.8249999999999901
  endloop
endfacet
facet normal 0.7055829533283663 -0.7086273322222483 0.0
  outer loop
    vertex 8.657527545178452 -11.398332745724154 0.8249999999999901
    vertex 11.101495219515511 -9.531355463118299 0.8749999999999899
    vertex 8.657527545178452 -11.398332745724154 0.8749999999999899
  endloop
endfacet
facet normal 0.7055829533283663 -0.7086273322222483 0.0
  outer loop
    vertex 8.657527545178452 -11.398332745724154 0.8249999999999901
    vertex 6.780045327433272 -13.83423969982108 0.8749999999999899
    vertex 6.780045327433272 -13.83423969982108 0.8249999999999901
  endloop
endfacet
facet normal 0.864947046668525 -0.5018631351866727 0.0
  outer loop
    vertex 6.780045327433272 -13.83423969982108 0.8749999999999899
    vertex 8.657527545178452 -11.398332745724154 0.8249999999999901
    vertex 8.657527545178452 -11.398332745724154 0.8749999999999899
  endloop
endfacet
facet normal 0.864947046668525 -0.5018631351866727 0.0
  outer loop
    vertex 6.780045327433272 -13.83423969982108 0.8249999999999901
    vertex 5.596995876732842 -16.67307329201454 0.8749999999999899
    vertex 5.596995876732842 -16.67307329201454 0.8249999999999901
  endloop
endfacet
facet normal 0.9653664281707569 -0.2608977948562137 0.0
  outer loop
    vertex 5.596995876732842 -16.67307329201454 0.8749999999999899
    vertex 6.780045327433272 -13.83423969982108 0.8249999999999901
    vertex 6.780045327433272 -13.83423969982108 0.8749999999999899
  endloop
endfacet
facet normal 0.9653664281707569 -0.2608977948562137 0.0
  outer loop
    vertex 5.596995876732842 -16.67307329201454 0.8249999999999901
    vertex 5.189002058060376 -19.721371704390766 0.8749999999999899
    vertex 5.189002058060376 -19.721371704390766 0.8249999999999901
  endloop
endfacet
facet normal 0.9999976829366034 -0.0021527009603267617 0.0
  outer loop
    vertex 5.189002058060376 -19.721371704390766 0.8749999999999899
    vertex 5.596995876732842 -16.67307329201454 0.8249999999999901
    vertex 5.596995876732842 -16.67307329201454 0.8749999999999899
  endloop
endfacet
facet normal 0.9999976829366034 -0.0021527009603267617 0.0
  outer loop
    vertex 5.189002058060376 -19.721371704390766 0.8249999999999901
    vertex 5.583867975917138 -22.771398437697233 0.8749999999999899
    vertex 5.583867975917138 -22.771398437697233 0.8249999999999901
  endloop
endfacet
facet normal 0.966480748184637 0.2567390959485218 0.0
  outer loop
    vertex 5.583867975917138 -22.771398437697233 0.8749999999999899
    vertex 5.189002058060376 -19.721371704390766 0.8249999999999901
    vertex 5.189002058060376 -19.721371704390766 0.8749999999999899
  endloop
endfacet
facet normal 0.966480748184637 0.2567390959485218 0.0
  outer loop
    vertex 5.583867975917138 -22.771398437697233 0.8249999999999901
    vertex 6.754684170547915 -25.615299210467256 0.8749999999999899
    vertex 6.754684170547915 -25.615299210467256 0.8249999999999901
  endloop
endfacet
facet normal 0.8670997476288227 0.4981345477499347 0.0
  outer loop
    vertex 6.754684170547915 -25.615299210467256 0.8749999999999899
    vertex 5.583867975917138 -22.771398437697233 0.8249999999999901
    vertex 5.583867975917138 -22.771398437697233 0.8749999999999899
  endloop
endfacet
facet normal 0.0 0.0 -1.0
  outer loop
    vertex 5.5468536439661875 -16.65952196313447 0.04999999999999013
    vertex 5.5336678640986925 -22.784733759015577 0.04999999999999013
    vertex 5.137061038442641 -19.72125989064893 0.04999999999999013
  endloop
endfacet
facet normal 0.0 0.0 -1.0
  outer loop
    vertex 5.5336678640986925 -22.784733759015577 0.04999999999999013
    vertex 5.5468536439661875 -16.65952196313447 0.04999999999999013
    vertex 6.709646021189277 -25.64117288673465 0.04999999999999013
  endloop
endfacet
facet normal 0.0 0.0 -1.0
  outer loop
    vertex 6.709646021189277 -25.64117288673465 0.04999999999999013
    vertex 5.5468536439661875 -16.65952196313447 0.04999999999999013
    vertex 6.735118991816831 -13.808172356471374 0.04999999999999013
  endloop
endfacet
facet normal 0.0 0.0 -1.0
  outer loop
    vertex 6.709646021189277 -25.64117288673465 0.04999999999999013
    vertex 6.735118991816831 -13.808172356471374 0.04999999999999013
    vertex 8.58485454170555 -28.09591566774233 0.04999999999999013
  endloop
endfacet
facet normal 0.0 0.0 -1.0
  outer loop
    vertex 8.58485454170555 -28.09591566774233 0.04999999999999013
    vertex 6.735118991816831 -13.808172356471374 0.04999999999999013
    vertex 8.620878762240258 -11.361525834275483 0.04999999999999013
  endloop
endfacet
facet normal 0.0 0.0 -1.0
  outer loop
    vertex 8.58485454170555 -28.09591566774233 0.04999999999999013
    vertex 8.620878762240258 -11.361525834275483 0.04999999999999013
    vertex 11.031501063901981 -29.981675438166295 0.04999999999999013
  endloop
endfacet
facet normal 0.0 0.0 -1.0
  outer loop
    vertex 11.031501063901981 -29.981675438166295 0.04999999999999013
    vertex 8.620878762240258 -11.361525834275483 0.04999999999999013
    vertex 11.075621543248294 -9.4863173137593 0.04999999999999013
  endloop
endfacet
facet normal 0.0 0.0 -1.0
  outer loop
    vertex 11.031501063901981 -29.981675438166295 0.04999999999999013
    vertex 11.075621543248294 -9.4863173137593 0.04999999999999013
    vertex 13.882850670563993 -31.169940786016397 0.04999999999999013
  endloop
endfacet
facet normal 0.0 0.0 -1.0
  outer loop
    vertex 13.882850670563993 -31.169940786016397 0.04999999999999013
    vertex 11.075621543248294 -9.4863173137593 0.04999999999999013
    vertex 13.932060670966107 -8.310339156669167 0.04999999999999013
  endloop
endfacet
facet normal 0.0 0.0 -1.0
  outer loop
    vertex 13.882850670563993 -31.169940786016397 0.04999999999999013
    vertex 13.932060670966107 -8.310339156669167 0.04999999999999013
    vertex 16.944588598078546 -31.579733391539946 0.04999999999999013
  endloop
endfacet
facet normal 0.0 0.0 -1.0
  outer loop
    vertex 16.944588598078546 -31.579733391539946 0.04999999999999013
    vertex 13.932060670966107 -8.310339156669167 0.04999999999999013
    vertex 16.995534539334198 -7.913732331012664 0.04999999999999013
  endloop
endfacet
facet normal 0.0 0.0 -1.0
  outer loop
    vertex 16.944588598078546 -31.579733391539946 0.04999999999999013
    vertex 16.995534539334198 -7.913732331012664 0.04999999999999013
    vertex 20.008062466446635 -31.18312656588344 0.04999999999999013
  endloop
endfacet
facet normal 0.0 0.0 -1.0
  outer loop
    vertex 20.008062466446635 -31.18312656588344 0.04999999999999013
    vertex 16.995534539334198 -7.913732331012664 0.04999999999999013
    vertex 20.057272466848747 -8.323524936536211 0.04999999999999013
  endloop
endfacet
facet normal 0.0 0.0 -1.0
  outer loop
    vertex 20.008062466446635 -31.18312656588344 0.04999999999999013
    vertex 20.057272466848747 -8.323524936536211 0.04999999999999013
    vertex 22.864501594164448 -30.00714840879331 0.04999999999999013
  endloop
endfacet
facet normal 0.0 0.0 -1.0
  outer loop
    vertex 22.864501594164448 -30.00714840879331 0.04999999999999013
    vertex 20.057272466848747 -8.323524936536211 0.04999999999999013
    vertex 22.90862207351076 -9.511790284386313 0.04999999999999013
  endloop
endfacet
facet normal 0.0 0.0 -1.0
  outer loop
    vertex 22.864501594164448 -30.00714840879331 0.04999999999999013
    vertex 22.90862207351076 -9.511790284386313 0.04999999999999013
    vertex 25.319244375172484 -28.131939888277127 0.04999999999999013
  endloop
endfacet
facet normal 0.0 0.0 -1.0
  outer loop
    vertex 25.319244375172484 -28.131939888277127 0.04999999999999013
    vertex 22.90862207351076 -9.511790284386313 0.04999999999999013
    vertex 25.355268595707194 -11.397550054810281 0.04999999999999013
  endloop
endfacet
facet normal 0.0 0.0 -1.0
  outer loop
    vertex 25.319244375172484 -28.131939888277127 0.04999999999999013
    vertex 25.355268595707194 -11.397550054810281 0.04999999999999013
    vertex 27.20500414559591 -25.685293366081236 0.04999999999999013
  endloop
endfacet
facet normal 0.0 0.0 -1.0
  outer loop
    vertex 27.20500414559591 -25.685293366081236 0.04999999999999013
    vertex 25.355268595707194 -11.397550054810281 0.04999999999999013
    vertex 27.230477116223465 -13.852292835817956 0.04999999999999013
  endloop
endfacet
facet normal 0.0 0.0 -1.0
  outer loop
    vertex 27.20500414559591 -25.685293366081236 0.04999999999999013
    vertex 27.230477116223465 -13.852292835817956 0.04999999999999013
    vertex 28.393269493446557 -22.83394375941814 0.04999999999999013
  endloop
endfacet
facet normal 0.0 0.0 -1.0
  outer loop
    vertex 28.393269493446557 -22.83394375941814 0.04999999999999013
    vertex 27.230477116223465 -13.852292835817956 0.04999999999999013
    vertex 28.40645527331405 -16.708731963537033 0.04999999999999013
  endloop
endfacet
facet normal 0.0 0.0 -1.0
  outer loop
    vertex 28.393269493446557 -22.83394375941814 0.04999999999999013
    vertex 28.40645527331405 -16.708731963537033 0.04999999999999013
    vertex 28.803062098970102 -19.772205831903676 0.04999999999999013
  endloop
endfacet
facet normal -0.7086273322222088 -0.7055829533284059 0.0
  outer loop
    vertex 25.355268595707194 -11.397550054810281 0.04999999999999013
    vertex 22.90862207351076 -9.511790284386313 -9.86988268891764e-15
    vertex 25.355268595707194 -11.397550054810281 -9.86988268891764e-15
  endloop
endfacet
facet normal -0.5018631351866732 -0.8649470466685248 0.0
  outer loop
    vertex 22.90862207351076 -9.511790284386313 -9.86988268891764e-15
    vertex 25.355268595707194 -11.397550054810281 0.04999999999999013
    vertex 22.90862207351076 -9.511790284386313 0.04999999999999013
  endloop
endfacet
facet normal -0.7086273322222088 -0.7055829533284059 0.0
  outer loop
    vertex 25.355268595707194 -11.397550054810281 0.04999999999999013
    vertex 27.230477116223465 -13.852292835817956 -9.86988268891764e-15
    vertex 27.230477116223465 -13.852292835817956 0.04999999999999013
  endloop
endfacet
facet normal -0.8670997476288276 -0.49813454774992605 0.0
  outer loop
    vertex 27.230477116223465 -13.852292835817956 -9.86988268891764e-15
    vertex 25.355268595707194 -11.397550054810281 0.04999999999999013
    vertex 25.355268595707194 -11.397550054810281 -9.86988268891764e-15
  endloop
endfacet
facet normal -0.8670997476288276 -0.49813454774992605 0.0
  outer loop
    vertex 27.230477116223465 -13.852292835817956 0.04999999999999013
    vertex 28.40645527331405 -16.708731963537033 -9.86988268891764e-15
    vertex 28.40645527331405 -16.708731963537033 0.04999999999999013
  endloop
endfacet
facet normal -0.9664807481846365 -0.25673909594852434 0.0
  outer loop
    vertex 28.40645527331405 -16.708731963537033 -9.86988268891764e-15
    vertex 27.230477116223465 -13.852292835817956 0.04999999999999013
    vertex 27.230477116223465 -13.852292835817956 -9.86988268891764e-15
  endloop
endfacet
facet normal -0.9664807481846365 -0.25673909594852434 0.0
  outer loop
    vertex 28.40645527331405 -16.708731963537033 0.04999999999999013
    vertex 28.803062098970102 -19.772205831903676 -9.86988268891764e-15
    vertex 28.803062098970102 -19.772205831903676 0.04999999999999013
  endloop
endfacet
facet normal -0.9999976829366033 0.002152700960328 0.0
  outer loop
    vertex 28.803062098970102 -19.772205831903676 -9.86988268891764e-15
    vertex 28.40645527331405 -16.708731963537033 0.04999999999999013
    vertex 28.40645527331405 -16.708731963537033 -9.86988268891764e-15
  endloop
endfacet
facet normal -0.9999976829366033 0.002152700960328 0.0
  outer loop
    vertex 28.803062098970102 -19.772205831903676 0.04999999999999013
    vertex 28.393269493446557 -22.83394375941814 -9.86988268891764e-15
    vertex 28.393269493446557 -22.83394375941814 0.04999999999999013
  endloop
endfacet
facet normal -0.9653664281707542 0.26089779485622344 0.0
  outer loop
    vertex 28.393269493446557 -22.83394375941814 -9.86988268891764e-15
    vertex 28.803062098970102 -19.772205831903676 0.04999999999999013
    vertex 28.803062098970102 -19.772205831903676 -9.86988268891764e-15
  endloop
endfacet
facet normal -0.9653664281707542 0.26089779485622344 0.0
  outer loop
    vertex 28.393269493446557 -22.83394375941814 0.04999999999999013
    vertex 27.20500414559591 -25.685293366081236 -9.86988268891764e-15
    vertex 27.20500414559591 -25.685293366081236 0.04999999999999013
  endloop
endfacet
facet normal -0.864947046668526 0.5018631351866712 0.0
  outer loop
    vertex 27.20500414559591 -25.685293366081236 -9.86988268891764e-15
    vertex 28.393269493446557 -22.83394375941814 0.04999999999999013
    vertex 28.393269493446557 -22.83394375941814 -9.86988268891764e-15
  endloop
endfacet
facet normal -0.864947046668526 0.5018631351866712 0.0
  outer loop
    vertex 27.20500414559591 -25.685293366081236 0.04999999999999013
    vertex 25.319244375172484 -28.131939888277127 -9.86988268891764e-15
    vertex 25.319244375172484 -28.131939888277127 0.04999999999999013
  endloop
endfacet
facet normal -0.7055829533283838 0.7086273322222306 0.0
  outer loop
    vertex 25.319244375172484 -28.131939888277127 -9.86988268891764e-15
    vertex 27.20500414559591 -25.685293366081236 0.04999999999999013
    vertex 27.20500414559591 -25.685293366081236 -9.86988268891764e-15
  endloop
endfacet
facet normal -0.49813454774989424 0.867099747628846 0.0
  outer loop
    vertex 22.864501594164448 -30.00714840879331 0.04999999999999013
    vertex 25.319244375172484 -28.131939888277127 -9.86988268891764e-15
    vertex 22.864501594164448 -30.00714840879331 -9.86988268891764e-15
  endloop
endfacet
facet normal -0.7055829533283838 0.7086273322222306 0.0
  outer loop
    vertex 25.319244375172484 -28.131939888277127 -9.86988268891764e-15
    vertex 22.864501594164448 -30.00714840879331 0.04999999999999013
    vertex 25.319244375172484 -28.131939888277127 0.04999999999999013
  endloop
endfacet
facet normal -0.2567390959485753 0.9664807481846229 0.0
  outer loop
    vertex 20.008062466446635 -31.18312656588344 0.04999999999999013
    vertex 22.864501594164448 -30.00714840879331 -9.86988268891764e-15
    vertex 20.008062466446635 -31.18312656588344 -9.86988268891764e-15
  endloop
endfacet
facet normal -0.49813454774989424 0.867099747628846 0.0
  outer loop
    vertex 22.864501594164448 -30.00714840879331 -9.86988268891764e-15
    vertex 20.008062466446635 -31.18312656588344 0.04999999999999013
    vertex 22.864501594164448 -30.00714840879331 0.04999999999999013
  endloop
endfacet
facet normal 0.0021527009602836425 0.9999976829366034 0.0
  outer loop
    vertex 16.944588598078546 -31.579733391539946 0.04999999999999013
    vertex 20.008062466446635 -31.18312656588344 -9.86988268891764e-15
    vertex 16.944588598078546 -31.579733391539946 -9.86988268891764e-15
  endloop
endfacet
facet normal -0.2567390959485753 0.9664807481846229 0.0
  outer loop
    vertex 20.008062466446635 -31.18312656588344 -9.86988268891764e-15
    vertex 16.944588598078546 -31.579733391539946 0.04999999999999013
    vertex 20.008062466446635 -31.18312656588344 0.04999999999999013
  endloop
endfacet
facet normal 0.2608977948562086 0.9653664281707584 0.0
  outer loop
    vertex 13.882850670563993 -31.169940786016397 0.04999999999999013
    vertex 16.944588598078546 -31.579733391539946 -9.86988268891764e-15
    vertex 13.882850670563993 -31.169940786016397 -9.86988268891764e-15
  endloop
endfacet
facet normal 0.0021527009602836425 0.9999976829366034 0.0
  outer loop
    vertex 16.944588598078546 -31.579733391539946 -9.86988268891764e-15
    vertex 13.882850670563993 -31.169940786016397 0.04999999999999013
    vertex 16.944588598078546 -31.579733391539946 0.04999999999999013
  endloop
endfacet
facet normal 0.5018631351866732 0.8649470466685248 0.0
  outer loop
    vertex 11.031501063901981 -29.981675438166295 0.04999999999999013
    vertex 13.882850670563993 -31.169940786016397 -9.86988268891764e-15
    vertex 11.031501063901981 -29.981675438166295 -9.86988268891764e-15
  endloop
endfacet
facet normal 0.2608977948562086 0.9653664281707584 0.0
  outer loop
    vertex 13.882850670563993 -31.169940786016397 -9.86988268891764e-15
    vertex 11.031501063901981 -29.981675438166295 0.04999999999999013
    vertex 13.882850670563993 -31.169940786016397 0.04999999999999013
  endloop
endfacet
facet normal 0.7086273322222088 0.7055829533284059 0.0
  outer loop
    vertex 8.58485454170555 -28.09591566774233 0.04999999999999013
    vertex 11.031501063901981 -29.981675438166295 -9.86988268891764e-15
    vertex 8.58485454170555 -28.09591566774233 -9.86988268891764e-15
  endloop
endfacet
facet normal 0.5018631351866732 0.8649470466685248 0.0
  outer loop
    vertex 11.031501063901981 -29.981675438166295 -9.86988268891764e-15
    vertex 8.58485454170555 -28.09591566774233 0.04999999999999013
    vertex 11.031501063901981 -29.981675438166295 0.04999999999999013
  endloop
endfacet
facet normal 0.8670997476288276 0.49813454774992605 0.0
  outer loop
    vertex 6.709646021189277 -25.64117288673465 -9.86988268891764e-15
    vertex 8.58485454170555 -28.09591566774233 0.04999999999999013
    vertex 8.58485454170555 -28.09591566774233 -9.86988268891764e-15
  endloop
endfacet
facet normal 0.7086273322222088 0.7055829533284059 0.0
  outer loop
    vertex 8.58485454170555 -28.09591566774233 0.04999999999999013
    vertex 6.709646021189277 -25.64117288673465 -9.86988268891764e-15
    vertex 6.709646021189277 -25.64117288673465 0.04999999999999013
  endloop
endfacet
facet normal 0.9664807481846365 0.25673909594852434 0.0
  outer loop
    vertex 5.5336678640986925 -22.784733759015577 -9.86988268891764e-15
    vertex 6.709646021189277 -25.64117288673465 0.04999999999999013
    vertex 6.709646021189277 -25.64117288673465 -9.86988268891764e-15
  endloop
endfacet
facet normal 0.8670997476288276 0.49813454774992605 0.0
  outer loop
    vertex 6.709646021189277 -25.64117288673465 0.04999999999999013
    vertex 5.5336678640986925 -22.784733759015577 -9.86988268891764e-15
    vertex 5.5336678640986925 -22.784733759015577 0.04999999999999013
  endloop
endfacet
facet normal 0.9999976829366033 -0.002152700960328 0.0
  outer loop
    vertex 5.137061038442641 -19.72125989064893 -9.86988268891764e-15
    vertex 5.5336678640986925 -22.784733759015577 0.04999999999999013
    vertex 5.5336678640986925 -22.784733759015577 -9.86988268891764e-15
  endloop
endfacet
facet normal 0.9664807481846365 0.25673909594852434 0.0
  outer loop
    vertex 5.5336678640986925 -22.784733759015577 0.04999999999999013
    vertex 5.137061038442641 -19.72125989064893 -9.86988268891764e-15
    vertex 5.137061038442641 -19.72125989064893 0.04999999999999013
  endloop
endfacet
facet normal 0.9653664281707542 -0.26089779485622344 0.0
  outer loop
    vertex 5.5468536439661875 -16.65952196313447 -9.86988268891764e-15
    vertex 5.137061038442641 -19.72125989064893 0.04999999999999013
    vertex 5.137061038442641 -19.72125989064893 -9.86988268891764e-15
  endloop
endfacet
facet normal 0.9999976829366033 -0.002152700960328 0.0
  outer loop
    vertex 5.137061038442641 -19.72125989064893 0.04999999999999013
    vertex 5.5468536439661875 -16.65952196313447 -9.86988268891764e-15
    vertex 5.5468536439661875 -16.65952196313447 0.04999999999999013
  endloop
endfacet
facet normal 0.864947046668526 -0.5018631351866712 0.0
  outer loop
    vertex 6.735118991816831 -13.808172356471374 -9.86988268891764e-15
    vertex 5.5468536439661875 -16.65952196313447 0.04999999999999013
    vertex 5.5468536439661875 -16.65952196313447 -9.86988268891764e-15
  endloop
endfacet
facet normal 0.9653664281707542 -0.26089779485622344 0.0
  outer loop
    vertex 5.5468536439661875 -16.65952196313447 0.04999999999999013
    vertex 6.735118991816831 -13.808172356471374 -9.86988268891764e-15
    vertex 6.735118991816831 -13.808172356471374 0.04999999999999013
  endloop
endfacet
facet normal 0.7055829533283838 -0.7086273322222306 0.0
  outer loop
    vertex 8.620878762240258 -11.361525834275483 -9.86988268891764e-15
    vertex 6.735118991816831 -13.808172356471374 0.04999999999999013
    vertex 6.735118991816831 -13.808172356471374 -9.86988268891764e-15
  endloop
endfacet
facet normal 0.864947046668526 -0.5018631351866712 0.0
  outer loop
    vertex 6.735118991816831 -13.808172356471374 0.04999999999999013
    vertex 8.620878762240258 -11.361525834275483 -9.86988268891764e-15
    vertex 8.620878762240258 -11.361525834275483 0.04999999999999013
  endloop
endfacet
facet normal 0.49813454774989424 -0.867099747628846 0.0
  outer loop
    vertex 11.075621543248294 -9.4863173137593 0.04999999999999013
    vertex 8.620878762240258 -11.361525834275483 -9.86988268891764e-15
    vertex 11.075621543248294 -9.4863173137593 -9.86988268891764e-15
  endloop
endfacet
facet normal 0.7055829533283838 -0.7086273322222306 0.0
  outer loop
    vertex 8.620878762240258 -11.361525834275483 -9.86988268891764e-15
    vertex 11.075621543248294 -9.4863173137593 0.04999999999999013
    vertex 8.620878762240258 -11.361525834275483 0.04999999999999013
  endloop
endfacet
facet normal 0.2567390959485753 -0.9664807481846229 0.0
  outer loop
    vertex 13.932060670966107 -8.310339156669167 0.04999999999999013
    vertex 11.075621543248294 -9.4863173137593 -9.86988268891764e-15
    vertex 13.932060670966107 -8.310339156669167 -9.86988268891764e-15
  endloop
endfacet
facet normal 0.49813454774989424 -0.867099747628846 0.0
  outer loop
    vertex 11.075621543248294 -9.4863173137593 -9.86988268891764e-15
    vertex 13.932060670966107 -8.310339156669167 0.04999999999999013
    vertex 11.075621543248294 -9.4863173137593 0.04999999999999013
  endloop
endfacet
facet normal -0.0021527009602836425 -0.9999976829366034 0.0
  outer loop
    vertex 16.995534539334198 -7.913732331012664 0.04999999999999013
    vertex 13.932060670966107 -8.310339156669167 -9.86988268891764e-15
    vertex 16.995534539334198 -7.913732331012664 -9.86988268891764e-15
  endloop
endfacet
facet normal 0.2567390959485753 -0.9664807481846229 0.0
  outer loop
    vertex 13.932060670966107 -8.310339156669167 -9.86988268891764e-15
    vertex 16.995534539334198 -7.913732331012664 0.04999999999999013
    vertex 13.932060670966107 -8.310339156669167 0.04999999999999013
  endloop
endfacet
facet normal -0.2608977948562086 -0.9653664281707584 0.0
  outer loop
    vertex 20.057272466848747 -8.323524936536211 0.04999999999999013
    vertex 16.995534539334198 -7.913732331012664 -9.86988268891764e-15
    vertex 20.057272466848747 -8.323524936536211 -9.86988268891764e-15
  endloop
endfacet
facet normal -0.0021527009602836425 -0.9999976829366034 0.0
  outer loop
    vertex 16.995534539334198 -7.913732331012664 -9.86988268891764e-15
    vertex 20.057272466848747 -8.323524936536211 0.04999999999999013
    vertex 16.995534539334198 -7.913732331012664 0.04999999999999013
  endloop
endfacet
facet normal -0.5018631351866732 -0.8649470466685248 0.0
  outer loop
    vertex 22.90862207351076 -9.511790284386313 0.04999999999999013
    vertex 20.057272466848747 -8.323524936536211 -9.86988268891764e-15
    vertex 22.90862207351076 -9.511790284386313 -9.86988268891764e-15
  endloop
endfacet
facet normal -0.2608977948562086 -0.9653664281707584 0.0
  outer loop
    vertex 20.057272466848747 -8.323524936536211 -9.86988268891764e-15
    vertex 22.90862207351076 -9.511790284386313 0.04999999999999013
    vertex 20.057272466848747 -8.323524936536211 0.04999999999999013
  endloop
endfacet
endsolid cases
