G75*
%MOIN*%
%OFA0B0*%
%FSLAX25Y25*%
%IPPOS*%
%LPD*%
%AMOC8*
5,1,8,0,0,1.08239X$1,22.5*
%
%ADD10C,0.01100*%
%ADD11C,0.00600*%
%ADD12C,0.00500*%
D10*
X0156490Y0069350D02*
X0156490Y0075255D01*
X0160427Y0075255D02*
X0160427Y0069350D01*
X0162935Y0070334D02*
X0162935Y0072303D01*
X0163920Y0073287D01*
X0165888Y0073287D01*
X0166872Y0072303D01*
X0166872Y0071318D01*
X0162935Y0071318D01*
X0162935Y0070334D02*
X0163920Y0069350D01*
X0165888Y0069350D01*
X0169381Y0070334D02*
X0170365Y0071318D01*
X0173318Y0071318D01*
X0173318Y0072303D02*
X0173318Y0069350D01*
X0170365Y0069350D01*
X0169381Y0070334D01*
X0172333Y0073287D02*
X0173318Y0072303D01*
X0172333Y0073287D02*
X0170365Y0073287D01*
X0175826Y0073287D02*
X0177795Y0073287D01*
X0176811Y0074271D02*
X0176811Y0070334D01*
X0177795Y0069350D01*
X0178152Y0064755D02*
X0178152Y0058850D01*
X0174215Y0064755D01*
X0174215Y0058850D01*
X0172604Y0054255D02*
X0172604Y0048350D01*
X0175556Y0048350D01*
X0176540Y0049334D01*
X0176540Y0051303D01*
X0175556Y0052287D01*
X0172604Y0052287D01*
X0170095Y0052287D02*
X0170095Y0048350D01*
X0167142Y0048350D01*
X0166158Y0049334D01*
X0166158Y0052287D01*
X0163649Y0051303D02*
X0159713Y0051303D01*
X0159713Y0054255D02*
X0159713Y0048350D01*
X0163649Y0048350D02*
X0163649Y0054255D01*
X0180661Y0063771D02*
X0182629Y0061803D01*
X0182629Y0058850D01*
X0187106Y0059834D02*
X0188090Y0058850D01*
X0190059Y0058850D01*
X0191043Y0059834D01*
X0187106Y0059834D02*
X0187106Y0063771D01*
X0188090Y0064755D01*
X0190059Y0064755D01*
X0191043Y0063771D01*
X0184597Y0063771D02*
X0182629Y0061803D01*
X0184597Y0063771D02*
X0184597Y0064755D01*
X0180661Y0064755D02*
X0180661Y0063771D01*
X0186569Y0070334D02*
X0187553Y0069350D01*
X0189521Y0069350D01*
X0190506Y0070334D01*
X0190506Y0071318D01*
X0189521Y0072303D01*
X0187553Y0072303D01*
X0186569Y0073287D01*
X0186569Y0074271D01*
X0187553Y0075255D01*
X0189521Y0075255D01*
X0190506Y0074271D01*
X0193014Y0072303D02*
X0193999Y0073287D01*
X0195967Y0073287D01*
X0196951Y0072303D01*
X0196951Y0071318D01*
X0193014Y0071318D01*
X0193014Y0070334D02*
X0193014Y0072303D01*
X0193014Y0070334D02*
X0193999Y0069350D01*
X0195967Y0069350D01*
X0199460Y0070334D02*
X0199460Y0072303D01*
X0200444Y0073287D01*
X0202412Y0073287D01*
X0203397Y0072303D01*
X0203397Y0071318D01*
X0199460Y0071318D01*
X0199460Y0070334D02*
X0200444Y0069350D01*
X0202412Y0069350D01*
X0205905Y0069350D02*
X0205905Y0075255D01*
X0208858Y0073287D02*
X0205905Y0071318D01*
X0208858Y0069350D01*
X0204561Y0054255D02*
X0202593Y0054255D01*
X0201608Y0053271D01*
X0204561Y0054255D02*
X0205545Y0053271D01*
X0205545Y0052287D01*
X0201608Y0048350D01*
X0205545Y0048350D01*
X0199370Y0048350D02*
X0198386Y0048350D01*
X0198386Y0049334D01*
X0199370Y0049334D01*
X0199370Y0048350D01*
X0195877Y0049334D02*
X0194893Y0048350D01*
X0192924Y0048350D01*
X0191940Y0049334D01*
X0195877Y0053271D01*
X0195877Y0049334D01*
X0191940Y0049334D02*
X0191940Y0053271D01*
X0192924Y0054255D01*
X0194893Y0054255D01*
X0195877Y0053271D01*
X0189431Y0052287D02*
X0187463Y0048350D01*
X0185495Y0052287D01*
X0160427Y0072303D02*
X0156490Y0072303D01*
D11*
X0195971Y0085619D02*
X0195971Y0087981D01*
X0200696Y0087981D02*
X0200696Y0085619D01*
X0205971Y0085619D02*
X0205971Y0087981D01*
X0210696Y0087981D02*
X0210696Y0085619D01*
D12*
X0133333Y0109792D02*
X0133333Y0013808D01*
X0216325Y0013808D01*
X0242034Y0043690D01*
X0242034Y0079910D01*
X0216325Y0109792D01*
X0133333Y0109792D01*
X0134475Y0109831D02*
X0215184Y0109831D01*
X0215184Y0100383D01*
X0134475Y0100383D01*
X0134475Y0109831D01*
X0134475Y0023217D02*
X0215184Y0023217D01*
X0215184Y0013769D01*
X0134475Y0013769D01*
X0134475Y0023217D01*
M02*
