G75*
%MOIN*%
%OFA0B0*%
%FSLAX25Y25*%
%IPPOS*%
%LPD*%
%AMOC8*
5,1,8,0,0,1.08239X$1,22.5*
%
%ADD10C,0.00000*%
%ADD11R,0.04724X0.03150*%
%ADD12R,0.03504X0.09055*%
%ADD13C,0.01600*%
%ADD14C,0.04000*%
D10*
X0128333Y0001800D02*
X0128333Y0121800D01*
X0219333Y0121800D01*
X0219333Y0001800D01*
X0128333Y0001800D01*
D11*
X0198333Y0083257D03*
X0208333Y0083257D03*
X0208333Y0090343D03*
X0198333Y0090343D03*
D12*
X0202388Y0099635D03*
X0186640Y0099635D03*
X0170892Y0099635D03*
X0155144Y0099635D03*
X0139396Y0099635D03*
X0147270Y0110580D03*
X0163018Y0110580D03*
X0178766Y0110580D03*
X0194514Y0110580D03*
X0210262Y0110580D03*
X0210262Y0023965D03*
X0194514Y0023965D03*
X0178766Y0023965D03*
X0163018Y0023965D03*
X0147270Y0023965D03*
X0139396Y0013020D03*
X0155144Y0013020D03*
X0170892Y0013020D03*
X0186640Y0013020D03*
X0202388Y0013020D03*
D13*
X0198636Y0013399D02*
X0190392Y0013399D01*
X0190392Y0014997D02*
X0198636Y0014997D01*
X0198636Y0016596D02*
X0190392Y0016596D01*
X0190392Y0018194D02*
X0191178Y0018194D01*
X0190762Y0018609D02*
X0191934Y0017438D01*
X0197095Y0017438D01*
X0198266Y0018609D01*
X0198266Y0029321D01*
X0197095Y0030493D01*
X0191934Y0030493D01*
X0190762Y0029321D01*
X0190762Y0018609D01*
X0190392Y0018376D02*
X0189221Y0019548D01*
X0184060Y0019548D01*
X0182888Y0018376D01*
X0182888Y0007664D01*
X0184060Y0006493D01*
X0189221Y0006493D01*
X0190392Y0007664D01*
X0190392Y0018376D01*
X0190762Y0019793D02*
X0182518Y0019793D01*
X0182518Y0018609D02*
X0181347Y0017438D01*
X0176186Y0017438D01*
X0175014Y0018609D01*
X0175014Y0029321D01*
X0176186Y0030493D01*
X0181347Y0030493D01*
X0182518Y0029321D01*
X0182518Y0018609D01*
X0182888Y0018194D02*
X0182103Y0018194D01*
X0182888Y0016596D02*
X0174644Y0016596D01*
X0174644Y0018194D02*
X0175430Y0018194D01*
X0174644Y0018376D02*
X0173473Y0019548D01*
X0168312Y0019548D01*
X0167140Y0018376D01*
X0167140Y0007664D01*
X0168312Y0006493D01*
X0173473Y0006493D01*
X0174644Y0007664D01*
X0174644Y0018376D01*
X0175014Y0019793D02*
X0166770Y0019793D01*
X0166770Y0018609D02*
X0165599Y0017438D01*
X0160438Y0017438D01*
X0159266Y0018609D01*
X0159266Y0029321D01*
X0160438Y0030493D01*
X0165599Y0030493D01*
X0166770Y0029321D01*
X0166770Y0018609D01*
X0167140Y0018194D02*
X0166355Y0018194D01*
X0167140Y0016596D02*
X0158896Y0016596D01*
X0158896Y0018194D02*
X0159682Y0018194D01*
X0158896Y0018376D02*
X0157725Y0019548D01*
X0152564Y0019548D01*
X0151392Y0018376D01*
X0151392Y0007664D01*
X0152564Y0006493D01*
X0157725Y0006493D01*
X0158896Y0007664D01*
X0158896Y0018376D01*
X0159266Y0019793D02*
X0151022Y0019793D01*
X0151022Y0018609D02*
X0149851Y0017438D01*
X0144690Y0017438D01*
X0143518Y0018609D01*
X0143518Y0029321D01*
X0144690Y0030493D01*
X0149851Y0030493D01*
X0151022Y0029321D01*
X0151022Y0018609D01*
X0151392Y0018194D02*
X0150607Y0018194D01*
X0151392Y0016596D02*
X0143148Y0016596D01*
X0143148Y0018194D02*
X0143934Y0018194D01*
X0143148Y0018376D02*
X0141977Y0019548D01*
X0136816Y0019548D01*
X0135644Y0018376D01*
X0135644Y0007664D01*
X0136816Y0006493D01*
X0141977Y0006493D01*
X0143148Y0007664D01*
X0143148Y0018376D01*
X0143518Y0019793D02*
X0130333Y0019793D01*
X0130333Y0021391D02*
X0143518Y0021391D01*
X0143518Y0022990D02*
X0130333Y0022990D01*
X0130333Y0024588D02*
X0143518Y0024588D01*
X0143518Y0026187D02*
X0130333Y0026187D01*
X0130333Y0027785D02*
X0143518Y0027785D01*
X0143581Y0029384D02*
X0130333Y0029384D01*
X0130333Y0030982D02*
X0217333Y0030982D01*
X0217333Y0029384D02*
X0213952Y0029384D01*
X0214014Y0029321D02*
X0212843Y0030493D01*
X0207682Y0030493D01*
X0206510Y0029321D01*
X0206510Y0018609D01*
X0207682Y0017438D01*
X0212843Y0017438D01*
X0214014Y0018609D01*
X0214014Y0029321D01*
X0214014Y0027785D02*
X0217333Y0027785D01*
X0217333Y0026187D02*
X0214014Y0026187D01*
X0214014Y0024588D02*
X0217333Y0024588D01*
X0217333Y0022990D02*
X0214014Y0022990D01*
X0214014Y0021391D02*
X0217333Y0021391D01*
X0217333Y0019793D02*
X0214014Y0019793D01*
X0213599Y0018194D02*
X0217333Y0018194D01*
X0217333Y0016596D02*
X0206140Y0016596D01*
X0206140Y0018194D02*
X0206926Y0018194D01*
X0206140Y0018376D02*
X0204969Y0019548D01*
X0199808Y0019548D01*
X0198636Y0018376D01*
X0198636Y0007664D01*
X0199808Y0006493D01*
X0204969Y0006493D01*
X0206140Y0007664D01*
X0206140Y0018376D01*
X0206510Y0019793D02*
X0198266Y0019793D01*
X0198266Y0021391D02*
X0206510Y0021391D01*
X0206510Y0022990D02*
X0198266Y0022990D01*
X0198266Y0024588D02*
X0206510Y0024588D01*
X0206510Y0026187D02*
X0198266Y0026187D01*
X0198266Y0027785D02*
X0206510Y0027785D01*
X0206573Y0029384D02*
X0198204Y0029384D01*
X0190825Y0029384D02*
X0182456Y0029384D01*
X0182518Y0027785D02*
X0190762Y0027785D01*
X0190762Y0026187D02*
X0182518Y0026187D01*
X0182518Y0024588D02*
X0190762Y0024588D01*
X0190762Y0022990D02*
X0182518Y0022990D01*
X0182518Y0021391D02*
X0190762Y0021391D01*
X0197851Y0018194D02*
X0198636Y0018194D01*
X0206140Y0014997D02*
X0217333Y0014997D01*
X0217333Y0013399D02*
X0206140Y0013399D01*
X0206140Y0011800D02*
X0217333Y0011800D01*
X0217333Y0010201D02*
X0206140Y0010201D01*
X0206140Y0008603D02*
X0217333Y0008603D01*
X0217333Y0007004D02*
X0205480Y0007004D01*
X0199296Y0007004D02*
X0189732Y0007004D01*
X0190392Y0008603D02*
X0198636Y0008603D01*
X0198636Y0010201D02*
X0190392Y0010201D01*
X0190392Y0011800D02*
X0198636Y0011800D01*
X0182888Y0011800D02*
X0174644Y0011800D01*
X0174644Y0010201D02*
X0182888Y0010201D01*
X0182888Y0008603D02*
X0174644Y0008603D01*
X0173984Y0007004D02*
X0183548Y0007004D01*
X0182888Y0013399D02*
X0174644Y0013399D01*
X0174644Y0014997D02*
X0182888Y0014997D01*
X0175014Y0021391D02*
X0166770Y0021391D01*
X0166770Y0022990D02*
X0175014Y0022990D01*
X0175014Y0024588D02*
X0166770Y0024588D01*
X0166770Y0026187D02*
X0175014Y0026187D01*
X0175014Y0027785D02*
X0166770Y0027785D01*
X0166708Y0029384D02*
X0175077Y0029384D01*
X0159329Y0029384D02*
X0150960Y0029384D01*
X0151022Y0027785D02*
X0159266Y0027785D01*
X0159266Y0026187D02*
X0151022Y0026187D01*
X0151022Y0024588D02*
X0159266Y0024588D01*
X0159266Y0022990D02*
X0151022Y0022990D01*
X0151022Y0021391D02*
X0159266Y0021391D01*
X0158896Y0014997D02*
X0167140Y0014997D01*
X0167140Y0013399D02*
X0158896Y0013399D01*
X0158896Y0011800D02*
X0167140Y0011800D01*
X0167140Y0010201D02*
X0158896Y0010201D01*
X0158896Y0008603D02*
X0167140Y0008603D01*
X0167800Y0007004D02*
X0158236Y0007004D01*
X0152052Y0007004D02*
X0142488Y0007004D01*
X0143148Y0008603D02*
X0151392Y0008603D01*
X0151392Y0010201D02*
X0143148Y0010201D01*
X0143148Y0011800D02*
X0151392Y0011800D01*
X0151392Y0013399D02*
X0143148Y0013399D01*
X0143148Y0014997D02*
X0151392Y0014997D01*
X0135644Y0014997D02*
X0130333Y0014997D01*
X0130333Y0013399D02*
X0135644Y0013399D01*
X0135644Y0011800D02*
X0130333Y0011800D01*
X0130333Y0010201D02*
X0135644Y0010201D01*
X0135644Y0008603D02*
X0130333Y0008603D01*
X0130333Y0007004D02*
X0136304Y0007004D01*
X0130333Y0005406D02*
X0217333Y0005406D01*
X0217333Y0003807D02*
X0130333Y0003807D01*
X0130333Y0003800D02*
X0130333Y0119800D01*
X0217333Y0119800D01*
X0217333Y0003800D01*
X0130333Y0003800D01*
X0130333Y0016596D02*
X0135644Y0016596D01*
X0135644Y0018194D02*
X0130333Y0018194D01*
X0130333Y0032581D02*
X0217333Y0032581D01*
X0217333Y0034179D02*
X0130333Y0034179D01*
X0130333Y0035778D02*
X0217333Y0035778D01*
X0217333Y0037376D02*
X0130333Y0037376D01*
X0130333Y0038975D02*
X0217333Y0038975D01*
X0217333Y0040573D02*
X0130333Y0040573D01*
X0130333Y0042172D02*
X0217333Y0042172D01*
X0217333Y0043770D02*
X0130333Y0043770D01*
X0130333Y0045369D02*
X0217333Y0045369D01*
X0217333Y0046967D02*
X0130333Y0046967D01*
X0130333Y0048566D02*
X0144113Y0048566D01*
X0143768Y0048709D02*
X0145238Y0048100D01*
X0146829Y0048100D01*
X0148299Y0048709D01*
X0149424Y0049834D01*
X0150033Y0051304D01*
X0150033Y0052896D01*
X0149424Y0054366D01*
X0148440Y0055350D01*
X0148890Y0055800D01*
X0159590Y0055800D01*
X0160619Y0056226D01*
X0193971Y0089578D01*
X0193971Y0087940D01*
X0195143Y0086769D01*
X0201524Y0086769D01*
X0201755Y0087000D01*
X0204911Y0087000D01*
X0205143Y0086769D01*
X0211524Y0086769D01*
X0212696Y0087940D01*
X0212696Y0091359D01*
X0213299Y0091609D01*
X0214424Y0092734D01*
X0215033Y0094204D01*
X0215033Y0095502D01*
X0215133Y0095743D01*
X0215133Y0103357D01*
X0214707Y0104386D01*
X0213942Y0105151D01*
X0214014Y0105224D01*
X0214014Y0115936D01*
X0212843Y0117107D01*
X0207682Y0117107D01*
X0206510Y0115936D01*
X0206510Y0105224D01*
X0206963Y0104771D01*
X0207360Y0103814D01*
X0208147Y0103026D01*
X0209533Y0101640D01*
X0209533Y0098708D01*
X0208768Y0098391D01*
X0207642Y0097266D01*
X0207033Y0095796D01*
X0207033Y0094960D01*
X0206060Y0093986D01*
X0206031Y0093918D01*
X0205780Y0093918D01*
X0206140Y0094279D01*
X0206140Y0104991D01*
X0204969Y0106162D01*
X0199808Y0106162D01*
X0198636Y0104991D01*
X0198636Y0100400D01*
X0197476Y0100400D01*
X0196447Y0099974D01*
X0195660Y0099186D01*
X0157874Y0061400D01*
X0148890Y0061400D01*
X0148299Y0061991D01*
X0147299Y0062405D01*
X0171893Y0087000D01*
X0175190Y0087000D01*
X0176219Y0087426D01*
X0181419Y0092626D01*
X0182207Y0093414D01*
X0182633Y0094443D01*
X0182633Y0100340D01*
X0182888Y0100595D01*
X0182888Y0094279D01*
X0184060Y0093107D01*
X0189221Y0093107D01*
X0190392Y0094279D01*
X0190392Y0104991D01*
X0189221Y0106162D01*
X0188455Y0106162D01*
X0190762Y0108469D01*
X0190762Y0105224D01*
X0191934Y0104052D01*
X0197095Y0104052D01*
X0198266Y0105224D01*
X0198266Y0115936D01*
X0197095Y0117107D01*
X0191934Y0117107D01*
X0190762Y0115936D01*
X0190762Y0114700D01*
X0189676Y0114700D01*
X0188647Y0114274D01*
X0187860Y0113486D01*
X0182518Y0108145D01*
X0182518Y0115936D01*
X0181347Y0117107D01*
X0176186Y0117107D01*
X0175014Y0115936D01*
X0175014Y0105224D01*
X0176186Y0104052D01*
X0178426Y0104052D01*
X0177460Y0103086D01*
X0177033Y0102057D01*
X0177033Y0096160D01*
X0173474Y0092600D01*
X0170176Y0092600D01*
X0169147Y0092174D01*
X0168360Y0091386D01*
X0139760Y0062786D01*
X0139333Y0061757D01*
X0139333Y0055443D01*
X0139760Y0054414D01*
X0140547Y0053626D01*
X0142033Y0052140D01*
X0142033Y0051304D01*
X0142642Y0049834D01*
X0143768Y0048709D01*
X0142506Y0050164D02*
X0130333Y0050164D01*
X0130333Y0051763D02*
X0142033Y0051763D01*
X0140812Y0053361D02*
X0130333Y0053361D01*
X0130333Y0054960D02*
X0139533Y0054960D01*
X0139333Y0056558D02*
X0130333Y0056558D01*
X0130333Y0058157D02*
X0139333Y0058157D01*
X0139333Y0059755D02*
X0130333Y0059755D01*
X0130333Y0061354D02*
X0139333Y0061354D01*
X0139926Y0062952D02*
X0130333Y0062952D01*
X0130333Y0064551D02*
X0141524Y0064551D01*
X0143123Y0066149D02*
X0130333Y0066149D01*
X0130333Y0067748D02*
X0144721Y0067748D01*
X0146320Y0069346D02*
X0130333Y0069346D01*
X0130333Y0070945D02*
X0147918Y0070945D01*
X0149517Y0072543D02*
X0130333Y0072543D01*
X0130333Y0074142D02*
X0151115Y0074142D01*
X0152714Y0075740D02*
X0130333Y0075740D01*
X0130333Y0077339D02*
X0154313Y0077339D01*
X0155911Y0078937D02*
X0130333Y0078937D01*
X0130333Y0080536D02*
X0157510Y0080536D01*
X0159108Y0082134D02*
X0130333Y0082134D01*
X0130333Y0083733D02*
X0160707Y0083733D01*
X0162305Y0085332D02*
X0130333Y0085332D01*
X0130333Y0086930D02*
X0163904Y0086930D01*
X0165502Y0088529D02*
X0130333Y0088529D01*
X0130333Y0090127D02*
X0167101Y0090127D01*
X0168699Y0091726D02*
X0130333Y0091726D01*
X0130333Y0093324D02*
X0137344Y0093324D01*
X0137407Y0093307D02*
X0139320Y0093307D01*
X0139320Y0099559D01*
X0135844Y0099559D01*
X0135844Y0094870D01*
X0135967Y0094412D01*
X0136204Y0094002D01*
X0136539Y0093667D01*
X0136950Y0093430D01*
X0137407Y0093307D01*
X0139320Y0093324D02*
X0139472Y0093324D01*
X0139472Y0093307D02*
X0141385Y0093307D01*
X0141843Y0093430D01*
X0142254Y0093667D01*
X0142589Y0094002D01*
X0142826Y0094412D01*
X0142948Y0094870D01*
X0142948Y0099559D01*
X0139472Y0099559D01*
X0139472Y0099711D01*
X0139320Y0099711D01*
X0139320Y0105962D01*
X0137407Y0105962D01*
X0136950Y0105840D01*
X0136539Y0105603D01*
X0136204Y0105267D01*
X0135967Y0104857D01*
X0135844Y0104399D01*
X0135844Y0099711D01*
X0139320Y0099711D01*
X0139320Y0099559D01*
X0139472Y0099559D01*
X0139472Y0093307D01*
X0139472Y0094923D02*
X0139320Y0094923D01*
X0139320Y0096521D02*
X0139472Y0096521D01*
X0139472Y0098120D02*
X0139320Y0098120D01*
X0139472Y0099711D02*
X0142948Y0099711D01*
X0142948Y0104399D01*
X0142826Y0104857D01*
X0142589Y0105267D01*
X0142254Y0105603D01*
X0141843Y0105840D01*
X0141385Y0105962D01*
X0139472Y0105962D01*
X0139472Y0099711D01*
X0139472Y0099718D02*
X0139320Y0099718D01*
X0139320Y0101317D02*
X0139472Y0101317D01*
X0139472Y0102915D02*
X0139320Y0102915D01*
X0139320Y0104514D02*
X0139472Y0104514D01*
X0142918Y0104514D02*
X0144228Y0104514D01*
X0144690Y0104052D02*
X0149851Y0104052D01*
X0151022Y0105224D01*
X0151022Y0115936D01*
X0149851Y0117107D01*
X0144690Y0117107D01*
X0143518Y0115936D01*
X0143518Y0105224D01*
X0144690Y0104052D01*
X0142948Y0102915D02*
X0151392Y0102915D01*
X0151392Y0101317D02*
X0142948Y0101317D01*
X0142948Y0099718D02*
X0151392Y0099718D01*
X0151392Y0098120D02*
X0142948Y0098120D01*
X0142948Y0096521D02*
X0151392Y0096521D01*
X0151392Y0094923D02*
X0142948Y0094923D01*
X0141449Y0093324D02*
X0152347Y0093324D01*
X0152564Y0093107D02*
X0157725Y0093107D01*
X0158896Y0094279D01*
X0158896Y0104991D01*
X0157725Y0106162D01*
X0152564Y0106162D01*
X0151392Y0104991D01*
X0151392Y0094279D01*
X0152564Y0093107D01*
X0157942Y0093324D02*
X0168095Y0093324D01*
X0168312Y0093107D02*
X0173473Y0093107D01*
X0174644Y0094279D01*
X0174644Y0104991D01*
X0173473Y0106162D01*
X0168312Y0106162D01*
X0167140Y0104991D01*
X0167140Y0094279D01*
X0168312Y0093107D01*
X0167140Y0094923D02*
X0158896Y0094923D01*
X0158896Y0096521D02*
X0167140Y0096521D01*
X0167140Y0098120D02*
X0158896Y0098120D01*
X0158896Y0099718D02*
X0167140Y0099718D01*
X0167140Y0101317D02*
X0158896Y0101317D01*
X0158896Y0102915D02*
X0167140Y0102915D01*
X0167140Y0104514D02*
X0166060Y0104514D01*
X0165599Y0104052D02*
X0166770Y0105224D01*
X0166770Y0115936D01*
X0165599Y0117107D01*
X0160438Y0117107D01*
X0159266Y0115936D01*
X0159266Y0105224D01*
X0160438Y0104052D01*
X0165599Y0104052D01*
X0166770Y0106112D02*
X0168262Y0106112D01*
X0166770Y0107711D02*
X0175014Y0107711D01*
X0175014Y0109309D02*
X0166770Y0109309D01*
X0166770Y0110908D02*
X0175014Y0110908D01*
X0175014Y0112506D02*
X0166770Y0112506D01*
X0166770Y0114105D02*
X0175014Y0114105D01*
X0175014Y0115703D02*
X0166770Y0115703D01*
X0159266Y0115703D02*
X0151022Y0115703D01*
X0151022Y0114105D02*
X0159266Y0114105D01*
X0159266Y0112506D02*
X0151022Y0112506D01*
X0151022Y0110908D02*
X0159266Y0110908D01*
X0159266Y0109309D02*
X0151022Y0109309D01*
X0151022Y0107711D02*
X0159266Y0107711D01*
X0159266Y0106112D02*
X0157775Y0106112D01*
X0158896Y0104514D02*
X0159976Y0104514D01*
X0152514Y0106112D02*
X0151022Y0106112D01*
X0151392Y0104514D02*
X0150312Y0104514D01*
X0143518Y0106112D02*
X0130333Y0106112D01*
X0130333Y0104514D02*
X0135875Y0104514D01*
X0135844Y0102915D02*
X0130333Y0102915D01*
X0130333Y0101317D02*
X0135844Y0101317D01*
X0135844Y0099718D02*
X0130333Y0099718D01*
X0130333Y0098120D02*
X0135844Y0098120D01*
X0135844Y0096521D02*
X0130333Y0096521D01*
X0130333Y0094923D02*
X0135844Y0094923D01*
X0130333Y0107711D02*
X0143518Y0107711D01*
X0143518Y0109309D02*
X0130333Y0109309D01*
X0130333Y0110908D02*
X0143518Y0110908D01*
X0143518Y0112506D02*
X0130333Y0112506D01*
X0130333Y0114105D02*
X0143518Y0114105D01*
X0143518Y0115703D02*
X0130333Y0115703D01*
X0130333Y0117302D02*
X0217333Y0117302D01*
X0217333Y0118900D02*
X0130333Y0118900D01*
X0173523Y0106112D02*
X0175014Y0106112D01*
X0174644Y0104514D02*
X0175724Y0104514D01*
X0174644Y0102915D02*
X0177389Y0102915D01*
X0177033Y0101317D02*
X0174644Y0101317D01*
X0174644Y0099718D02*
X0177033Y0099718D01*
X0177033Y0098120D02*
X0174644Y0098120D01*
X0174644Y0096521D02*
X0177033Y0096521D01*
X0175796Y0094923D02*
X0174644Y0094923D01*
X0174198Y0093324D02*
X0173690Y0093324D01*
X0174633Y0089800D02*
X0170733Y0089800D01*
X0142133Y0061200D01*
X0142133Y0056000D01*
X0146033Y0052100D01*
X0149840Y0053361D02*
X0217333Y0053361D01*
X0217333Y0051763D02*
X0150033Y0051763D01*
X0149561Y0050164D02*
X0217333Y0050164D01*
X0217333Y0048566D02*
X0147953Y0048566D01*
X0148830Y0054960D02*
X0217333Y0054960D01*
X0217333Y0056558D02*
X0160951Y0056558D01*
X0162550Y0058157D02*
X0217333Y0058157D01*
X0217333Y0059755D02*
X0164148Y0059755D01*
X0165747Y0061354D02*
X0217333Y0061354D01*
X0217333Y0062952D02*
X0167345Y0062952D01*
X0168944Y0064551D02*
X0217333Y0064551D01*
X0217333Y0066149D02*
X0170542Y0066149D01*
X0172141Y0067748D02*
X0217333Y0067748D01*
X0217333Y0069346D02*
X0173740Y0069346D01*
X0175338Y0070945D02*
X0217333Y0070945D01*
X0217333Y0072543D02*
X0176937Y0072543D01*
X0178535Y0074142D02*
X0217333Y0074142D01*
X0217333Y0075740D02*
X0180134Y0075740D01*
X0181732Y0077339D02*
X0217333Y0077339D01*
X0217333Y0078937D02*
X0183331Y0078937D01*
X0184929Y0080536D02*
X0194571Y0080536D01*
X0194531Y0080577D02*
X0194866Y0080242D01*
X0195276Y0080005D01*
X0195734Y0079882D01*
X0198333Y0079882D01*
X0198333Y0083257D01*
X0198333Y0086631D01*
X0195734Y0086631D01*
X0195276Y0086509D01*
X0194866Y0086272D01*
X0194531Y0085937D01*
X0194294Y0085526D01*
X0194171Y0085068D01*
X0194171Y0083257D01*
X0198333Y0083257D01*
X0198333Y0083257D01*
X0198333Y0083257D01*
X0194171Y0083257D01*
X0194171Y0081445D01*
X0194294Y0080987D01*
X0194531Y0080577D01*
X0194171Y0082134D02*
X0186528Y0082134D01*
X0188126Y0083733D02*
X0194171Y0083733D01*
X0194242Y0085332D02*
X0189725Y0085332D01*
X0191323Y0086930D02*
X0194981Y0086930D01*
X0193971Y0088529D02*
X0192922Y0088529D01*
X0198333Y0090343D02*
X0199333Y0089800D01*
X0207133Y0089800D01*
X0208333Y0090343D01*
X0208433Y0091100D01*
X0208433Y0092400D01*
X0211033Y0095000D01*
X0212333Y0096300D01*
X0212333Y0102800D01*
X0209733Y0105400D01*
X0209733Y0109300D01*
X0210262Y0110580D01*
X0206510Y0110908D02*
X0198266Y0110908D01*
X0198266Y0112506D02*
X0206510Y0112506D01*
X0206510Y0114105D02*
X0198266Y0114105D01*
X0198266Y0115703D02*
X0206510Y0115703D01*
X0214014Y0115703D02*
X0217333Y0115703D01*
X0217333Y0114105D02*
X0214014Y0114105D01*
X0214014Y0112506D02*
X0217333Y0112506D01*
X0217333Y0110908D02*
X0214014Y0110908D01*
X0214014Y0109309D02*
X0217333Y0109309D01*
X0217333Y0107711D02*
X0214014Y0107711D01*
X0214014Y0106112D02*
X0217333Y0106112D01*
X0217333Y0104514D02*
X0214579Y0104514D01*
X0215133Y0102915D02*
X0217333Y0102915D01*
X0217333Y0101317D02*
X0215133Y0101317D01*
X0215133Y0099718D02*
X0217333Y0099718D01*
X0217333Y0098120D02*
X0215133Y0098120D01*
X0215133Y0096521D02*
X0217333Y0096521D01*
X0217333Y0094923D02*
X0215033Y0094923D01*
X0214669Y0093324D02*
X0217333Y0093324D01*
X0217333Y0091726D02*
X0213416Y0091726D01*
X0212696Y0090127D02*
X0217333Y0090127D01*
X0217333Y0088529D02*
X0212696Y0088529D01*
X0211685Y0086930D02*
X0217333Y0086930D01*
X0217333Y0085332D02*
X0212425Y0085332D01*
X0212373Y0085526D02*
X0212136Y0085937D01*
X0211801Y0086272D01*
X0211390Y0086509D01*
X0210933Y0086631D01*
X0208333Y0086631D01*
X0205734Y0086631D01*
X0205276Y0086509D01*
X0204866Y0086272D01*
X0204531Y0085937D01*
X0204294Y0085526D01*
X0204171Y0085068D01*
X0204171Y0083257D01*
X0208333Y0083257D01*
X0208333Y0086631D01*
X0208333Y0083257D01*
X0208333Y0083257D01*
X0208333Y0083257D01*
X0204171Y0083257D01*
X0204171Y0081445D01*
X0204294Y0080987D01*
X0204531Y0080577D01*
X0204866Y0080242D01*
X0205276Y0080005D01*
X0205734Y0079882D01*
X0208333Y0079882D01*
X0208333Y0083257D01*
X0208333Y0083257D01*
X0212496Y0083257D01*
X0212496Y0085068D01*
X0212373Y0085526D01*
X0212496Y0083733D02*
X0217333Y0083733D01*
X0217333Y0082134D02*
X0212496Y0082134D01*
X0212496Y0081445D02*
X0212496Y0083257D01*
X0208333Y0083257D01*
X0208333Y0083257D01*
X0208333Y0079882D01*
X0210933Y0079882D01*
X0211390Y0080005D01*
X0211801Y0080242D01*
X0212136Y0080577D01*
X0212373Y0080987D01*
X0212496Y0081445D01*
X0212095Y0080536D02*
X0217333Y0080536D01*
X0208333Y0080536D02*
X0208333Y0080536D01*
X0208333Y0082134D02*
X0208333Y0082134D01*
X0208333Y0083733D02*
X0208333Y0083733D01*
X0208333Y0085332D02*
X0208333Y0085332D01*
X0204981Y0086930D02*
X0201685Y0086930D01*
X0201390Y0086509D02*
X0200933Y0086631D01*
X0198333Y0086631D01*
X0198333Y0083257D01*
X0198333Y0083257D01*
X0202496Y0083257D01*
X0202496Y0085068D01*
X0202373Y0085526D01*
X0202136Y0085937D01*
X0201801Y0086272D01*
X0201390Y0086509D01*
X0202425Y0085332D02*
X0204242Y0085332D01*
X0204171Y0083733D02*
X0202496Y0083733D01*
X0202496Y0083257D02*
X0202496Y0081445D01*
X0202373Y0080987D01*
X0202136Y0080577D01*
X0201801Y0080242D01*
X0201390Y0080005D01*
X0200933Y0079882D01*
X0198333Y0079882D01*
X0198333Y0083257D01*
X0198333Y0083257D01*
X0202496Y0083257D01*
X0202496Y0082134D02*
X0204171Y0082134D01*
X0204571Y0080536D02*
X0202095Y0080536D01*
X0198333Y0080536D02*
X0198333Y0080536D01*
X0198333Y0082134D02*
X0198333Y0082134D01*
X0198333Y0083733D02*
X0198333Y0083733D01*
X0198333Y0085332D02*
X0198333Y0085332D01*
X0186601Y0090127D02*
X0178920Y0090127D01*
X0177322Y0088529D02*
X0185002Y0088529D01*
X0183404Y0086930D02*
X0171823Y0086930D01*
X0170225Y0085332D02*
X0181805Y0085332D01*
X0180207Y0083733D02*
X0168626Y0083733D01*
X0167028Y0082134D02*
X0178608Y0082134D01*
X0177010Y0080536D02*
X0165429Y0080536D01*
X0163831Y0078937D02*
X0175411Y0078937D01*
X0173812Y0077339D02*
X0162232Y0077339D01*
X0160634Y0075740D02*
X0172214Y0075740D01*
X0170615Y0074142D02*
X0159035Y0074142D01*
X0157437Y0072543D02*
X0169017Y0072543D01*
X0167418Y0070945D02*
X0155838Y0070945D01*
X0154240Y0069346D02*
X0165820Y0069346D01*
X0164221Y0067748D02*
X0152641Y0067748D01*
X0151043Y0066149D02*
X0162623Y0066149D01*
X0161024Y0064551D02*
X0149444Y0064551D01*
X0147845Y0062952D02*
X0159426Y0062952D01*
X0159033Y0058600D02*
X0198033Y0097600D01*
X0201933Y0097600D01*
X0203233Y0098900D01*
X0202388Y0099635D01*
X0206140Y0099718D02*
X0209533Y0099718D01*
X0209533Y0101317D02*
X0206140Y0101317D01*
X0206140Y0102915D02*
X0208258Y0102915D01*
X0207070Y0104514D02*
X0206140Y0104514D01*
X0206510Y0106112D02*
X0205019Y0106112D01*
X0206510Y0107711D02*
X0198266Y0107711D01*
X0198266Y0109309D02*
X0206510Y0109309D01*
X0199758Y0106112D02*
X0198266Y0106112D01*
X0198636Y0104514D02*
X0197557Y0104514D01*
X0198636Y0102915D02*
X0190392Y0102915D01*
X0190392Y0101317D02*
X0198636Y0101317D01*
X0196192Y0099718D02*
X0190392Y0099718D01*
X0190392Y0098120D02*
X0194593Y0098120D01*
X0192995Y0096521D02*
X0190392Y0096521D01*
X0190392Y0094923D02*
X0191396Y0094923D01*
X0189798Y0093324D02*
X0189438Y0093324D01*
X0188199Y0091726D02*
X0180519Y0091726D01*
X0182117Y0093324D02*
X0183843Y0093324D01*
X0182888Y0094923D02*
X0182633Y0094923D01*
X0182633Y0096521D02*
X0182888Y0096521D01*
X0182888Y0098120D02*
X0182633Y0098120D01*
X0182633Y0099718D02*
X0182888Y0099718D01*
X0179833Y0101500D02*
X0190233Y0111900D01*
X0194133Y0111900D01*
X0195433Y0110600D01*
X0194514Y0110580D01*
X0190762Y0107711D02*
X0190004Y0107711D01*
X0189271Y0106112D02*
X0190762Y0106112D01*
X0190392Y0104514D02*
X0191472Y0104514D01*
X0183683Y0109309D02*
X0182518Y0109309D01*
X0182518Y0110908D02*
X0185281Y0110908D01*
X0186880Y0112506D02*
X0182518Y0112506D01*
X0182518Y0114105D02*
X0188478Y0114105D01*
X0190762Y0115703D02*
X0182518Y0115703D01*
X0179833Y0101500D02*
X0179833Y0095000D01*
X0174633Y0089800D01*
X0206140Y0094923D02*
X0206996Y0094923D01*
X0207334Y0096521D02*
X0206140Y0096521D01*
X0206140Y0098120D02*
X0208496Y0098120D01*
X0159033Y0058600D02*
X0146033Y0058600D01*
D14*
X0146033Y0058600D03*
X0146033Y0052100D03*
X0146033Y0043000D03*
X0211033Y0095000D03*
M02*
